<svg width="551" height="839" viewBox="0 0 551 839" fill="none" xmlns="http://www.w3.org/2000/svg">
<path d="M274.9 839C267.146 833.338 259.567 827.809 251.999 822.281C240.941 814.194 229.883 806.106 218.825 798.019C202.108 785.791 185.392 773.552 168.676 761.323C151.96 749.095 135.244 736.856 118.517 724.627C103.907 713.94 89.2767 703.274 74.6668 692.587C62.886 683.965 51.1258 675.323 39.345 666.701C26.9136 657.597 14.4823 648.482 2.00972 639.428C0.543564 638.36 -0.117235 637.312 0.0169899 635.411C0.481615 628.854 0.719091 622.278 1.07014 615.722C1.36957 610.131 1.68964 604.541 2.04069 598.951C2.45369 592.395 2.94929 585.849 3.35197 579.283C3.59977 575.316 3.72367 571.339 3.9405 567.362C4.23992 561.772 4.59097 556.182 4.89039 550.592C5.26209 543.707 5.5925 536.812 5.9642 529.916C6.27395 524.244 6.61467 518.582 6.93475 512.909C7.26515 507.073 7.59555 501.246 7.92595 495.409C8.24603 489.737 8.57642 484.065 8.8965 478.402C9.2269 472.566 9.54697 466.739 9.8877 460.902C10.2078 455.312 10.5382 449.722 10.8583 444.132C11.1887 438.295 11.5087 432.468 11.8495 426.632C12.1695 420.959 12.5103 415.287 12.8303 409.625C13.1607 403.788 13.4808 397.961 13.8112 392.125C14.1313 386.452 14.4617 380.78 14.7921 375.118C15.1225 369.363 15.4426 363.619 15.773 357.864C16.1034 352.11 16.4338 346.365 16.7642 340.611C17.0842 335.02 17.4146 329.43 17.7347 323.84C18.0754 317.921 18.3852 312.012 18.7259 306.093C19.046 300.503 19.3764 294.913 19.6965 289.323C20.0269 283.486 20.3469 277.659 20.6773 271.823C20.9974 266.15 21.3278 260.478 21.6582 254.805C21.9886 249.051 22.319 243.306 22.6494 237.552C22.9695 231.88 23.2689 226.207 23.6303 220.535C24.0433 213.979 24.5595 207.433 24.9519 200.877C25.2307 196.18 25.3442 191.464 25.6024 186.757C25.8605 181.897 26.2115 177.046 26.48 172.186C26.862 165.219 27.1924 158.241 27.5744 151.274C27.8739 145.684 28.2249 140.094 28.545 134.503C28.8754 128.667 29.2058 122.84 29.5362 117.003C29.8563 111.413 30.1557 105.823 30.5171 100.243C30.9301 93.6869 31.4257 87.1411 31.8283 80.5849C32.0761 76.6184 32.2 72.6415 32.4169 68.6647C32.7163 63.0745 33.057 57.4843 33.3564 51.8942C33.7281 44.927 34.0689 37.9495 34.4406 30.9823C34.74 25.3922 35.0704 19.802 35.4215 14.2118C35.7209 9.52592 36.0719 4.8503 36.423 0C195.8 0 355.043 0 514.399 0C514.502 0.400767 514.657 0.780981 514.677 1.1612C514.894 5.94984 515.07 10.7385 515.307 15.5271C515.607 21.3639 515.958 27.1905 516.288 33.0273C516.608 38.6175 516.908 44.2077 517.269 49.7978C517.682 56.354 518.188 62.8998 518.591 69.456C518.859 73.9158 518.962 78.3859 519.231 82.8457C519.644 89.8848 520.15 96.9239 520.552 103.973C520.821 108.598 520.924 113.222 521.193 117.846C521.595 124.649 522.101 131.441 522.504 138.244C522.772 142.786 522.896 147.328 523.154 151.87C523.557 158.837 524.053 165.794 524.466 172.751C524.724 177.046 524.848 181.352 525.106 185.647C525.529 192.769 526.025 199.89 526.438 207.022C526.706 211.646 526.809 216.27 527.078 220.894C527.48 227.697 527.986 234.49 528.389 241.292C528.658 245.917 528.771 250.541 529.04 255.165C529.442 262.05 529.948 268.925 530.351 275.81C530.609 280.27 530.733 284.729 531.001 289.189C531.414 296.239 531.92 303.278 532.333 310.317C532.591 314.694 532.705 319.082 532.963 323.46C533.376 330.581 533.882 337.702 534.295 344.834C534.553 349.376 534.667 353.918 534.935 358.46C535.338 365.345 535.854 372.22 536.257 379.094C536.525 383.719 536.639 388.343 536.907 392.967C537.3 399.688 537.785 406.398 538.219 413.119C538.301 414.331 538.239 415.564 538.301 416.777C538.642 423.508 538.993 430.238 539.365 436.959C539.674 442.714 540.025 448.458 540.345 454.213C540.666 459.885 540.996 465.547 541.316 471.219C541.646 477.056 541.977 482.883 542.307 488.72C542.627 494.392 542.958 500.064 543.278 505.737C543.608 511.491 543.939 517.246 544.259 522.99C544.589 528.745 544.909 534.5 545.24 540.244C545.57 545.998 545.9 551.753 546.22 557.497C546.551 563.17 546.871 568.842 547.201 574.504C547.532 580.259 547.852 586.013 548.182 591.768C548.513 597.523 548.843 603.277 549.173 609.022C549.504 614.776 549.803 620.531 550.165 626.275C550.381 629.748 550.671 633.222 550.991 636.695C551.094 637.836 550.33 638.278 549.628 638.802C546.344 641.216 543.051 643.621 539.757 646.026C528.492 654.247 517.228 662.467 505.953 670.678C494.75 678.837 483.527 686.976 472.324 695.145C462.371 702.4 452.428 709.665 442.485 716.92C432.604 724.134 422.713 731.338 412.832 738.541C402.558 746.043 392.274 753.534 382.001 761.035C371.79 768.486 361.568 775.925 351.346 783.365C337.242 793.641 323.138 803.917 309.034 814.204C298.09 822.178 287.156 830.152 276.221 838.127C275.819 838.394 275.416 838.651 274.9 839ZM58.2397 24.2207C58.0849 25.1866 57.868 26.0396 57.8164 26.9028C57.4757 32.421 57.1659 37.9495 56.8459 43.4678C56.1851 54.8434 55.5346 66.2087 54.8841 77.5843C54.2336 88.9599 53.5728 100.325 52.9223 111.701C52.2719 123.076 51.6111 134.442 50.9606 145.817C50.3101 157.193 49.6493 168.558 48.9988 179.934C48.3484 191.227 47.6979 202.511 47.0474 213.804C46.3866 225.251 45.7258 236.709 45.0753 248.157C44.4249 259.45 43.7744 270.733 43.1239 282.027C42.4631 293.474 41.7817 304.932 41.1518 316.38C40.5633 327.19 40.0574 338 39.4792 348.801C39.0662 356.518 38.5809 364.235 38.1576 371.953C37.7136 379.999 37.28 388.045 36.8566 396.081C36.4643 403.397 36.0823 410.704 35.6899 418.02C35.2872 425.573 34.8742 433.136 34.4509 440.689C34.0482 448.006 33.6352 455.312 33.2429 462.629C32.8299 470.264 32.4272 477.909 32.0039 485.544C31.6115 492.614 31.1882 499.674 30.7958 506.744C30.3519 514.708 29.9492 522.672 29.5155 530.636C29.1335 537.706 28.7205 544.776 28.3385 551.846C27.9152 559.645 27.5331 567.445 27.1098 575.244C26.7175 582.314 26.2735 589.374 25.8915 596.444C25.4681 604.243 25.1687 612.053 24.6318 619.842C24.4873 621.867 24.9932 623.1 26.6349 624.343C62.7311 651.462 98.7861 678.642 134.851 705.812C180.891 740.494 226.94 775.175 272.99 809.857C273.764 810.443 274.569 810.967 275.457 811.583C276.541 810.802 277.543 810.114 278.514 809.374C321.971 776.408 365.419 743.453 408.877 710.487C426.698 696.964 444.447 683.338 462.361 669.948C482.835 654.658 503.454 639.552 524.073 624.446C525.808 623.172 526.427 621.877 526.283 619.77C525.705 611.252 525.271 602.712 524.796 594.183C524.414 587.113 524.084 580.043 523.681 572.973C522.958 560.303 522.184 547.632 521.44 534.962C520.934 526.351 520.459 517.739 519.985 509.128C519.324 497.269 518.663 485.411 518.002 473.552C517.362 462.094 516.701 450.647 516.061 439.189C515.4 427.33 514.739 415.472 514.079 403.613C513.428 392.083 512.778 380.543 512.138 369.014C511.477 357.319 510.826 345.615 510.165 333.921C509.68 325.227 509.185 316.534 508.699 307.85C508.039 296.074 507.388 284.298 506.727 272.511C506.077 260.981 505.426 249.441 504.776 237.912C504.115 226.135 503.465 214.359 502.804 202.572C502.153 190.96 501.503 179.338 500.852 167.726C500.192 156.032 499.541 144.327 498.88 132.633C498.23 121.021 497.579 109.399 496.929 97.7871C496.268 86.0107 495.607 74.2343 494.957 62.4477C494.286 50.5069 493.635 38.5661 492.954 26.6253C492.912 25.8546 492.737 25.0839 492.613 24.2104C347.701 24.2207 203.079 24.2207 58.2397 24.2207Z" fill="black" fill-opacity="0.2"/>
<path d="M274.246 825.46C266.736 819.95 259.396 814.57 252.066 809.19C241.356 801.32 230.646 793.45 219.936 785.58C203.746 773.68 187.556 761.77 171.366 749.87C155.176 737.97 138.986 726.06 122.786 714.16C108.636 703.76 94.4665 693.38 80.3165 682.98C68.9065 674.59 57.5165 666.18 46.1065 657.79C34.0665 648.93 22.0265 640.06 9.94645 631.25C8.52645 630.21 7.88646 629.19 8.01646 627.34C8.46646 620.96 8.69646 614.56 9.03646 608.18C9.32646 602.74 9.63646 597.3 9.97646 591.86C10.3765 585.48 10.8565 579.11 11.2465 572.72C11.4865 568.86 11.6065 564.99 11.8165 561.12C12.1065 555.68 12.4465 550.24 12.7365 544.8C13.0965 538.1 13.4165 531.39 13.7765 524.68C14.0765 519.16 14.4065 513.65 14.7165 508.13C15.0365 502.45 15.3565 496.78 15.6765 491.1C15.9865 485.58 16.3065 480.06 16.6165 474.55C16.9365 468.87 17.2465 463.2 17.5765 457.52C17.8865 452.08 18.2065 446.64 18.5165 441.2C18.8365 435.52 19.1465 429.85 19.4765 424.17C19.7865 418.65 20.1165 413.13 20.4265 407.62C20.7465 401.94 21.0565 396.27 21.3765 390.59C21.6865 385.07 22.0065 379.55 22.3265 374.04C22.6465 368.44 22.9565 362.85 23.2765 357.25C23.5965 351.65 23.9165 346.06 24.2365 340.46C24.5465 335.02 24.8665 329.58 25.1765 324.14C25.5065 318.38 25.8065 312.63 26.1365 306.87C26.4465 301.43 26.7665 295.99 27.0765 290.55C27.3965 284.87 27.7065 279.2 28.0265 273.52C28.3365 268 28.6565 262.48 28.9765 256.96C29.2965 251.36 29.6165 245.77 29.9365 240.17C30.2465 234.65 30.5365 229.13 30.8865 223.61C31.2865 217.23 31.7865 210.86 32.1665 204.48C32.4365 199.91 32.5465 195.32 32.7965 190.74C33.0465 186.01 33.3865 181.29 33.6465 176.56C34.0165 169.78 34.3365 162.99 34.7065 156.21C34.9965 150.77 35.3365 145.33 35.6465 139.89C35.9665 134.21 36.2865 128.54 36.6065 122.86C36.9165 117.42 37.2065 111.98 37.5565 106.55C37.9565 100.17 38.4365 93.8 38.8265 87.42C39.0665 83.56 39.1865 79.69 39.3965 75.82C39.6865 70.38 40.0165 64.94 40.3065 59.5C40.6665 52.72 40.9965 45.93 41.3565 39.15C41.6465 33.71 41.9665 28.27 42.3065 22.83C42.5965 18.27 42.9365 13.72 43.2765 9C197.636 9 351.866 9 506.206 9C506.306 9.39 506.456 9.76 506.476 10.13C506.686 14.79 506.856 19.45 507.086 24.11C507.376 29.79 507.716 35.46 508.036 41.14C508.346 46.58 508.636 52.02 508.986 57.46C509.386 63.84 509.876 70.21 510.266 76.59C510.526 80.93 510.626 85.28 510.886 89.62C511.286 96.47 511.776 103.32 512.166 110.18C512.426 114.68 512.526 119.18 512.786 123.68C513.176 130.3 513.666 136.91 514.056 143.53C514.316 147.95 514.436 152.37 514.686 156.79C515.076 163.57 515.556 170.34 515.956 177.11C516.206 181.29 516.326 185.48 516.576 189.66C516.986 196.59 517.466 203.52 517.866 210.46C518.126 214.96 518.226 219.46 518.486 223.96C518.876 230.58 519.366 237.19 519.756 243.81C520.016 248.31 520.126 252.81 520.386 257.31C520.776 264.01 521.266 270.7 521.656 277.4C521.906 281.74 522.026 286.08 522.286 290.42C522.686 297.28 523.176 304.13 523.576 310.98C523.826 315.24 523.936 319.51 524.186 323.77C524.586 330.7 525.076 337.63 525.476 344.57C525.726 348.99 525.836 353.41 526.096 357.83C526.486 364.53 526.986 371.22 527.376 377.91C527.636 382.41 527.746 386.91 528.006 391.41C528.386 397.95 528.856 404.48 529.276 411.02C529.356 412.2 529.296 413.4 529.356 414.58C529.686 421.13 530.026 427.68 530.386 434.22C530.686 439.82 531.026 445.41 531.336 451.01C531.646 456.53 531.966 462.04 532.276 467.56C532.596 473.24 532.916 478.91 533.236 484.59C533.546 490.11 533.866 495.63 534.176 501.15C534.496 506.75 534.816 512.35 535.126 517.94C535.446 523.54 535.756 529.14 536.076 534.73C536.396 540.33 536.716 545.93 537.026 551.52C537.346 557.04 537.656 562.56 537.976 568.07C538.296 573.67 538.606 579.27 538.926 584.87C539.246 590.47 539.566 596.07 539.886 601.66C540.206 607.26 540.496 612.86 540.846 618.45C541.056 621.83 541.336 625.21 541.646 628.59C541.746 629.7 541.006 630.13 540.326 630.64C537.146 632.99 533.956 635.33 530.766 637.67C519.856 645.67 508.946 653.67 498.026 661.66C487.176 669.6 476.306 677.52 465.456 685.47C455.816 692.53 446.186 699.6 436.556 706.66C426.986 713.68 417.406 720.69 407.836 727.7C397.886 735 387.926 742.29 377.976 749.59C368.086 756.84 358.186 764.08 348.286 771.32C334.626 781.32 320.966 791.32 307.306 801.33C296.706 809.09 286.116 816.85 275.526 824.61C275.136 824.87 274.746 825.12 274.246 825.46ZM64.4065 32.57C64.2565 33.51 64.0465 34.34 63.9965 35.18C63.6665 40.55 63.3665 45.93 63.0565 51.3C62.4165 62.37 61.7865 73.43 61.1565 84.5C60.5265 95.57 59.8865 106.63 59.2565 117.7C58.6265 128.77 57.9865 139.83 57.3565 150.9C56.7265 161.97 56.0865 173.03 55.4565 184.1C54.8265 195.09 54.1965 206.07 53.5665 217.06C52.9265 228.2 52.2865 239.35 51.6565 250.49C51.0265 261.48 50.3965 272.46 49.7665 283.45C49.1265 294.59 48.4665 305.74 47.8565 316.88C47.2865 327.4 46.7965 337.92 46.2365 348.43C45.8365 355.94 45.3665 363.45 44.9565 370.96C44.5265 378.79 44.1065 386.62 43.6965 394.44C43.3165 401.56 42.9465 408.67 42.5665 415.79C42.1765 423.14 41.7765 430.5 41.3665 437.85C40.9765 444.97 40.5765 452.08 40.1965 459.2C39.7965 466.63 39.4065 474.07 38.9965 481.5C38.6165 488.38 38.2065 495.25 37.8265 502.13C37.3965 509.88 37.0065 517.63 36.5865 525.38C36.2165 532.26 35.8165 539.14 35.4465 546.02C35.0365 553.61 34.6665 561.2 34.2565 568.79C33.8765 575.67 33.4465 582.54 33.0765 589.42C32.6665 597.01 32.3765 604.61 31.8565 612.19C31.7165 614.16 32.2065 615.36 33.7965 616.57C68.7565 642.96 103.676 669.41 138.606 695.85C183.196 729.6 227.796 763.35 272.396 797.1C273.146 797.67 273.926 798.18 274.786 798.78C275.836 798.02 276.806 797.35 277.746 796.63C319.836 764.55 361.916 732.48 404.006 700.4C421.266 687.24 438.456 673.98 455.806 660.95C475.636 646.07 495.606 631.37 515.576 616.67C517.256 615.43 517.856 614.17 517.716 612.12C517.156 603.83 516.736 595.52 516.276 587.22C515.906 580.34 515.586 573.46 515.196 566.58C514.496 554.25 513.746 541.92 513.026 529.59C512.536 521.21 512.076 512.83 511.616 504.45C510.976 492.91 510.336 481.37 509.696 469.83C509.076 458.68 508.436 447.54 507.816 436.39C507.176 424.85 506.536 413.31 505.896 401.77C505.266 390.55 504.636 379.32 504.016 368.1C503.376 356.72 502.746 345.33 502.106 333.95C501.636 325.49 501.156 317.03 500.686 308.58C500.046 297.12 499.416 285.66 498.776 274.19C498.146 262.97 497.516 251.74 496.886 240.52C496.246 229.06 495.616 217.6 494.976 206.13C494.346 194.83 493.716 183.52 493.086 172.22C492.446 160.84 491.816 149.45 491.176 138.07C490.546 126.77 489.916 115.46 489.286 104.16C488.646 92.7 488.006 81.24 487.376 69.77C486.726 58.15 486.096 46.53 485.436 34.91C485.396 34.16 485.226 33.41 485.106 32.56C344.756 32.57 204.686 32.57 64.4065 32.57Z" fill="#E6AC5D"/>
<path d="M64.4054 32.5701C204.685 32.5701 344.745 32.5701 485.055 32.5701C485.175 33.4201 485.345 34.1701 485.385 34.9201C486.045 46.5401 486.685 58.1601 487.325 69.7801C487.965 81.2401 488.595 92.7001 489.235 104.17C489.865 115.47 490.495 126.78 491.125 138.08C491.765 149.46 492.395 160.85 493.035 172.23C493.665 183.53 494.295 194.84 494.925 206.14C495.565 217.6 496.195 229.06 496.835 240.53C497.465 251.75 498.095 262.98 498.725 274.2C499.365 285.66 500.005 297.12 500.635 308.59C501.105 317.05 501.575 325.51 502.055 333.96C502.695 345.34 503.325 356.73 503.965 368.11C504.595 379.33 505.225 390.56 505.845 401.78C506.485 413.32 507.125 424.86 507.765 436.4C508.385 447.55 509.025 458.69 509.645 469.84C510.285 481.38 510.925 492.92 511.565 504.46C512.035 512.84 512.495 521.22 512.975 529.6C513.685 541.93 514.435 554.26 515.145 566.59C515.535 573.47 515.855 580.35 516.225 587.23C516.675 595.53 517.095 603.83 517.665 612.13C517.805 614.18 517.205 615.44 515.525 616.68C495.565 631.38 475.585 646.08 455.755 660.96C438.395 673.99 421.215 687.25 403.955 700.41C361.875 732.49 319.785 764.57 277.695 796.64C276.755 797.35 275.785 798.02 274.735 798.79C273.885 798.19 273.095 797.67 272.345 797.11C227.745 763.36 183.155 729.61 138.555 695.86C103.625 669.42 68.7054 642.97 33.7454 616.58C32.1554 615.38 31.6754 614.18 31.8054 612.2C32.3254 604.62 32.6154 597.02 33.0254 589.43C33.3954 582.55 33.8254 575.68 34.2054 568.8C34.6154 561.21 34.9954 553.62 35.3954 546.03C35.7654 539.15 36.1554 532.27 36.5354 525.39C36.9554 517.64 37.3554 509.89 37.7754 502.14C38.1554 495.26 38.5654 488.39 38.9454 481.51C39.3554 474.08 39.7354 466.64 40.1454 459.21C40.5354 452.09 40.9254 444.98 41.3154 437.86C41.7154 430.51 42.1154 423.15 42.5154 415.8C42.8954 408.68 43.2654 401.57 43.6454 394.45C44.0654 386.62 44.4754 378.79 44.9054 370.97C45.3254 363.46 45.7854 355.95 46.1854 348.44C46.7454 337.92 47.2354 327.4 47.8054 316.89C48.4054 305.74 49.0754 294.6 49.7154 283.46C50.3454 272.47 50.9754 261.49 51.6054 250.5C52.2454 239.36 52.8854 228.21 53.5154 217.07C54.1454 206.08 54.7754 195.1 55.4054 184.11C56.0454 173.04 56.6754 161.98 57.3054 150.91C57.9354 139.84 58.5754 128.78 59.2054 117.71C59.8354 106.64 60.4754 95.5801 61.1054 84.5101C61.7354 73.4401 62.3754 62.3801 63.0054 51.3101C63.3154 45.9401 63.6154 40.5601 63.9454 35.1901C64.0554 34.3401 64.2554 33.5101 64.4054 32.5701ZM140.775 343.66C141.435 344.6 141.825 345.19 142.255 345.74C151.535 357.59 160.855 369.41 170.055 381.31C171.365 383.01 172.725 383.62 174.825 383.61C198.595 383.54 222.365 383.57 246.135 383.57C319.185 383.57 392.235 383.57 465.285 383.56C466.445 383.56 467.615 383.47 468.955 383.42C469.025 382.45 469.135 381.68 469.135 380.91C469.145 363.25 469.145 345.58 469.135 327.92C469.135 327.09 468.965 326.27 468.865 325.31C466.765 325.31 464.945 325.19 463.135 325.34C459.505 325.63 456.845 324.18 454.945 321.16C454.735 320.83 454.495 320.51 454.265 320.19C448.285 311.81 442.285 303.44 436.325 295.05C425.185 279.35 414.065 263.65 402.965 247.92C402.165 246.79 401.605 245.49 400.965 244.33C402.055 243.07 402.975 242.08 403.805 241.04C408.225 235.49 409.665 229.13 408.355 222.26C406.365 211.86 398.045 204.62 387.355 203.65C385.245 203.46 384.935 203.2 384.805 201.12C384.715 199.78 384.785 198.43 384.755 197.08C384.735 196.31 384.635 195.54 384.585 194.85C382.085 194.19 330.595 194.27 328.505 194.94C328.465 195.95 328.375 197.04 328.375 198.13C328.365 220.39 328.375 242.64 328.365 264.9C328.365 265.89 328.285 266.87 328.245 267.86C328.065 267.92 327.885 267.99 327.715 268.05C322.195 262.33 316.955 256.35 311.555 250.51C306.075 244.57 300.665 238.57 295.215 232.61C289.835 226.73 284.445 220.86 278.905 214.82C232.765 257.86 186.855 300.69 140.775 343.66ZM307.315 183.13C305.465 182.36 304.005 181.76 302.555 181.15C290.795 176.21 278.975 171.39 266.325 169.16C264.305 168.8 263.575 167.86 263.125 166.05C261.585 159.82 259.925 153.63 258.295 147.43C258.015 146.38 257.635 145.37 257.315 144.36C243.415 144.36 229.735 144.36 215.925 144.36C215.665 145.28 215.395 146.1 215.195 146.93C213.615 153.23 211.935 159.5 210.515 165.84C210.025 168.04 209.045 169.21 206.805 169.28C206.495 169.29 206.175 169.37 205.865 169.43C186.795 173.34 169.035 180.42 152.855 191.32C150.975 192.59 150.965 192.6 149.135 191.35C143.565 187.57 137.995 183.79 132.425 180.01C130.255 178.54 130.195 178.48 128.425 180.24C119.045 189.57 109.695 198.92 100.345 208.28C99.8554 208.77 99.4554 209.36 98.9754 209.95C99.3854 210.66 99.7254 211.29 100.105 211.88C103.815 217.69 107.505 223.51 111.285 229.27C112.095 230.51 112.085 231.43 111.255 232.67C109.215 235.69 107.235 238.75 105.425 241.91C97.2054 256.26 91.7254 271.66 88.3754 287.82C87.9654 289.82 87.1554 290.73 85.1454 291.18C78.8154 292.6 72.5254 294.24 66.2254 295.81C65.3954 296.02 64.5854 296.29 63.7454 296.54C63.6854 297.24 63.5854 297.79 63.5854 298.33C63.5754 310.93 63.5654 323.52 63.5854 336.12C63.5854 338.05 63.6454 338.06 65.6954 338.59C72.3654 340.31 79.0254 342.07 85.7054 343.73C87.3454 344.14 88.1854 344.78 88.4954 346.63C90.0154 355.79 92.4454 364.72 95.9554 373.34C99.9454 383.14 105.175 392.27 110.855 401.16C111.795 402.63 111.885 403.69 110.885 405.17C107.295 410.49 103.845 415.9 100.345 421.27C99.8754 421.98 99.4454 422.72 98.9354 423.55C109.465 434.37 119.925 445.02 130.545 455.69C131.725 454.91 132.655 454.32 133.555 453.7C138.265 450.49 142.955 447.23 147.695 444.06C151.775 441.32 150.465 441.46 154.405 444.05C170.665 454.74 188.195 462.36 207.395 465.93C209.025 466.23 209.765 467.04 210.115 468.65C211.495 475.07 213.005 481.47 214.475 487.87C215.005 490.15 215.025 490.19 217.275 490.2C229.875 490.22 242.475 490.23 255.075 490.22C257.455 490.22 257.475 490.19 258.115 487.84C259.915 481.19 261.745 474.55 263.435 467.87C263.835 466.29 264.665 465.68 266.145 465.42C269.025 464.91 271.905 464.37 274.755 463.7C289.165 460.31 302.415 454.16 314.975 446.46C317.805 444.73 320.595 442.94 323.535 441.1C330.475 445.85 337.375 450.58 344.445 455.42C354.895 444.8 365.195 434.33 375.475 423.89C375.165 423.32 375.045 423.02 374.865 422.77C370.515 416.53 366.175 410.29 361.805 404.06C361.405 403.49 360.895 402.95 360.335 402.52C353.635 397.33 346.915 392.16 340.195 387C339.655 386.59 339.045 386.28 338.535 385.96C338.235 386.19 338.085 386.27 337.995 386.39C337.575 386.96 337.165 387.55 336.755 388.13C319.015 413.09 295.815 430.16 265.735 437.32C250.655 440.91 235.435 442.51 220.015 440.19C200.115 437.2 181.805 430.11 165.465 418.23C163.095 416.51 160.755 414.74 158.435 412.95C153.405 409.08 148.655 404.91 144.545 400.02C137.475 391.61 131.735 382.34 126.545 372.68C119.025 358.7 114.935 343.77 113.995 327.98C113.345 317.19 114.125 306.45 116.295 295.84C120.675 274.51 128.975 255.05 143.805 238.77C147.855 234.32 151.805 229.7 156.355 225.82C183.295 202.85 214.715 193.93 249.705 196.97C260.965 197.95 271.825 200.92 282.295 205.19C284.095 205.92 285.125 205.58 286.405 204.28C292.785 197.78 299.265 191.37 305.705 184.93C306.155 184.45 306.605 183.91 307.315 183.13ZM219.515 688.33C220.535 687.78 221.305 687.38 222.045 686.95C226.855 684.2 231.685 681.47 236.465 678.67C237.605 678 238.525 677.85 239.735 678.56C246.985 682.8 254.285 686.95 261.545 691.15C261.975 691.4 262.305 691.82 262.815 692.28C262.035 692.8 261.475 693.22 260.865 693.57C253.935 697.57 246.975 701.51 240.085 705.58C238.625 706.44 237.545 706.29 236.195 705.49C231.495 702.7 226.735 700.01 221.995 697.29C221.265 696.87 220.515 696.48 219.555 695.96C217.995 698.66 216.555 701.15 214.995 703.85C219.665 706.57 224.065 709.14 228.905 711.96C224.115 714.73 219.775 717.25 215.285 719.85C217.325 723.33 219.185 726.51 221.135 729.83C225.565 727.3 229.735 724.91 234.255 722.32C234.375 723.53 234.515 724.36 234.535 725.19C234.615 728.67 234.635 732.16 234.705 735.65C234.715 736.42 234.815 737.18 234.895 738.11C238.035 738.24 240.985 738.35 244.135 738.11C244.135 736.84 244.135 735.9 244.135 734.96C244.115 729.49 244.135 724.03 244.065 718.56C244.045 717.21 244.505 716.38 245.685 715.7C252.845 711.63 259.975 707.49 267.115 703.4C267.615 703.11 268.205 702.98 268.875 702.73C268.975 703.37 269.075 703.76 269.075 704.14C269.135 712.54 269.155 720.93 269.235 729.33C269.245 730.69 268.725 731.5 267.545 732.16C262.635 734.91 257.775 737.73 252.905 740.55C252.175 740.97 251.495 741.47 250.665 742.01C252.115 744.8 253.545 747.29 255.105 749.76C259.975 747.33 264.285 744.56 269.255 742.25C269.255 747.53 269.255 752.38 269.255 757.47C273.135 757.75 276.775 757.52 280.765 757.17C280.765 752.11 280.765 747.26 280.765 741.82C285.705 744.62 290.145 747.14 294.815 749.79C296.365 747.14 297.815 744.64 299.385 741.96C298.495 741.4 297.795 740.92 297.055 740.49C292.185 737.68 287.315 734.86 282.425 732.09C281.285 731.44 280.705 730.68 280.715 729.29C280.775 721.05 280.745 712.81 280.765 704.57C280.765 703.99 280.945 703.41 281.085 702.56C282.025 703.03 282.735 703.34 283.405 703.72C290.275 707.67 297.115 711.66 304.015 715.55C305.525 716.4 306.085 717.43 306.055 719.14C305.965 724.53 306.005 729.91 306.025 735.3C306.025 736.21 306.145 737.12 306.215 738.03C309.235 738.03 311.975 738.03 314.975 738.03C314.975 735.28 314.945 732.69 314.985 730.11C315.025 727.55 314.685 724.97 315.015 721.96C319.855 724.7 324.285 727.21 328.875 729.82C330.875 726.38 332.725 723.19 334.685 719.81C332.225 718.38 330.025 717.14 327.865 715.85C325.745 714.58 323.475 713.54 321.275 711.8C326.025 709.03 330.435 706.46 335.025 703.79C333.435 701.06 331.985 698.56 330.485 695.98C329.525 696.49 328.825 696.84 328.145 697.23C323.265 700.03 318.365 702.79 313.535 705.66C312.285 706.4 311.325 706.38 310.065 705.64C302.895 701.43 295.665 697.31 288.465 693.15C288.015 692.89 287.645 692.5 287.085 692.05C287.855 691.55 288.415 691.13 289.015 690.79C295.945 686.79 302.905 682.84 309.795 678.78C311.305 677.89 312.455 677.98 313.915 678.86C318.595 681.67 323.365 684.35 328.105 687.08C328.825 687.5 329.585 687.86 330.475 688.33C332.055 685.6 333.505 683.11 335.035 680.47C330.335 677.73 325.925 675.16 321.155 672.38C325.785 669.5 330.275 667.21 334.455 664.58C333.185 661.45 329.915 656.05 328.545 654.75C323.725 657.07 319.315 660.27 314.125 662.61C314.185 656.94 315.085 651.71 314.955 646.29C311.825 646.14 309.025 646.07 306.025 646.31C306.025 647.46 306.025 648.33 306.025 649.19C306.025 654.58 305.975 659.96 306.055 665.35C306.085 666.97 305.555 667.93 304.115 668.74C297.135 672.66 290.225 676.69 283.285 680.67C282.625 681.05 281.915 681.32 280.995 681.75C280.885 680.86 280.755 680.26 280.755 679.66C280.745 671.5 280.775 663.34 280.715 655.18C280.705 653.73 281.225 652.86 282.475 652.16C287.375 649.41 292.235 646.58 297.105 643.76C297.835 643.34 298.525 642.85 299.195 642.42C297.875 639.23 295.875 636 294.445 634.75C290.025 637.17 285.715 639.92 280.795 642.49C280.595 636.99 280.875 631.97 280.645 626.88C276.705 626.88 273.105 626.88 269.285 626.88C269.205 627.87 269.095 628.71 269.085 629.56C269.075 633.12 269.105 636.69 269.095 640.25C269.095 640.84 268.975 641.43 268.885 642.32C264.175 639.65 259.745 637.13 255.165 634.53C253.515 637.27 251.955 639.68 250.665 642.41C251.665 643.03 252.375 643.51 253.125 643.94C257.795 646.63 262.435 649.36 267.155 651.96C268.605 652.76 269.125 653.72 269.115 655.35C269.045 663.35 269.085 671.35 269.075 679.35C269.075 680.02 268.955 680.7 268.865 681.64C267.965 681.23 267.315 681 266.725 680.66C259.855 676.72 253.015 672.73 246.115 668.84C244.635 668 243.995 667.03 244.025 665.29C244.125 659.83 244.075 654.36 244.055 648.89C244.055 648.05 243.945 647.21 243.875 646.21C240.745 646.2 237.865 646.05 234.775 646.3C234.775 649.15 234.815 651.67 234.765 654.19C234.715 656.66 234.995 659.16 234.475 662.08C229.875 659.46 225.645 657.04 221.135 654.47C219.135 657.9 217.245 661.13 215.275 664.5C219.855 667.16 224.145 669.65 228.855 672.39C224.025 675.21 219.625 677.79 215.175 680.39C215.395 680.99 215.475 681.37 215.665 681.7C216.905 683.83 218.135 685.94 219.515 688.33ZM327.525 107.06C327.715 106.46 327.805 106.07 327.955 105.72C329.535 102.11 329.015 98.6701 326.725 95.6301C325.265 93.6901 323.475 91.9501 321.615 90.3701C319.025 88.1701 316.195 86.2501 313.525 84.1401C311.225 82.3201 308.945 80.4801 306.795 78.5001C305.095 76.9301 305.235 75.6201 306.925 74.0801C310.635 70.7201 317.355 69.8301 321.815 72.0501C323.225 72.7501 324.685 73.3801 326.165 73.9301C327.615 74.4601 328.935 74.0401 330.235 72.9301C329.505 71.6701 328.805 70.4501 328.095 69.2401C327.175 67.6801 327.075 66.1301 327.995 64.5101C328.365 63.8601 328.545 63.1101 328.885 62.2101C327.945 61.9201 327.295 61.6101 326.615 61.5401C320.475 60.9101 314.935 62.3401 310.445 66.7401C308.305 68.8401 306.415 71.2001 304.405 73.4301C304.015 73.8701 303.595 74.2901 302.935 75.0001C302.815 74.1601 302.705 73.7301 302.705 73.2901C302.685 71.0701 302.665 68.8501 302.705 66.6401C302.735 64.6601 302.775 64.6801 304.715 63.9901C305.525 63.7001 306.585 63.7501 307.035 62.6701C304.495 62.0301 288.185 62.1401 286.085 62.9401C287.635 63.5601 288.885 64.0601 290.075 64.5301C290.585 67.6701 290.375 72.8001 289.635 74.5601C289.195 74.0301 288.825 73.5401 288.415 73.0901C286.775 71.2701 285.275 69.2901 283.445 67.6801C277.925 62.8301 271.385 60.9001 264.095 61.5201C263.285 61.5901 262.505 61.9501 261.575 62.2201C262.045 63.8601 262.995 64.8101 263.925 65.7501C265.735 67.5701 266.185 69.6601 265.325 72.0701C265.065 72.8001 264.875 73.5601 264.665 74.2901C266.125 75.5901 267.595 75.4201 268.975 74.7001C270.015 74.1601 270.955 73.3901 271.835 72.6101C273.665 70.9701 275.675 70.0801 278.135 70.8501C280.245 71.5101 282.345 72.1701 284.405 72.9701C285.185 73.2701 285.905 73.8701 286.505 74.4801C287.775 75.7601 287.795 76.8901 286.575 78.2101C285.775 79.0801 284.885 79.8801 283.955 80.6201C280.535 83.3201 277.055 85.9401 273.645 88.6501C270.845 90.8701 268.235 93.2901 266.195 96.2701C264.345 98.9801 263.675 101.87 264.835 105.05C265.065 105.68 265.165 106.36 265.305 106.92C263.875 108.1 261.855 107.37 260.565 109.16C262.665 109.73 264.545 109.45 266.395 109.5C268.295 109.55 270.205 109.57 272.095 109.49C273.935 109.41 275.835 109.89 277.755 109.06C276.085 103.3 277.615 98.1501 280.315 93.2301C282.575 89.1101 285.515 85.4701 288.765 82.0901C289.095 81.7401 289.595 81.5601 290.345 81.0801C290.345 82.3401 290.345 83.1901 290.345 84.0501C290.345 90.6201 290.345 97.2001 290.345 103.77C290.345 107.88 290.345 107.07 287.085 108.02C286.455 108.21 285.665 108.19 285.535 109.49C288.185 109.49 290.695 109.49 293.205 109.49C295.665 109.49 298.115 109.55 300.575 109.47C303.025 109.4 305.525 109.8 307.975 108.87C307.015 108.26 306.015 107.93 305.005 107.68C302.775 107.12 302.685 107.1 302.715 104.85C302.795 97.4901 302.895 90.1201 303.015 82.7601C303.025 82.2801 303.235 81.7901 303.445 80.8801C308.595 86.6501 313.365 92.1301 315.365 99.4001C316.065 101.94 316.325 104.53 315.655 107.15C315.485 107.8 315.495 108.5 315.435 109.1C315.765 109.27 315.905 109.39 316.045 109.4C321.195 109.42 326.335 109.45 331.485 109.43C331.785 109.43 332.085 109.12 332.925 108.65C330.805 108.01 329.195 107.55 327.525 107.06ZM349.145 62.7701C349.375 63.0701 349.435 63.2501 349.565 63.3101C349.995 63.5001 350.435 63.6701 350.885 63.8101C353.195 64.5201 353.225 64.5201 353.225 66.8801C353.235 79.5501 353.235 92.2201 353.225 104.89C353.225 107.14 353.175 107.08 350.975 107.78C350.165 108.04 349.045 107.85 348.515 109.16C351.105 109.81 353.625 109.41 356.095 109.48C358.545 109.55 361.005 109.55 363.465 109.48C365.925 109.41 368.425 109.81 370.875 108.88C369.915 108.26 368.925 107.92 367.915 107.66C365.815 107.12 365.775 107.13 365.765 104.98C365.745 98.4101 365.755 91.8401 365.775 85.2601C365.775 84.6801 365.945 84.1001 366.065 83.2801C366.825 83.7401 367.355 84.0501 367.875 84.3701C370.975 86.2701 374.015 88.2801 377.195 90.0401C378.565 90.8001 379.165 91.6401 379.135 93.1801C379.065 96.9801 379.135 100.78 379.115 104.58C379.105 107.11 379.065 107.06 376.645 107.8C375.845 108.04 374.725 107.87 374.255 109.13C374.665 109.26 374.945 109.43 375.225 109.43C382.035 109.44 388.845 109.45 395.655 109.42C395.975 109.42 396.285 109.13 396.625 108.97C396.465 108.69 396.415 108.47 396.305 108.44C395.415 108.15 394.515 107.86 393.605 107.63C391.615 107.13 391.525 107.11 391.525 105.13C391.505 92.3001 391.505 79.4801 391.525 66.6501C391.525 64.7301 391.595 64.7701 393.555 64.0401C394.285 63.7701 395.305 63.8501 395.715 62.5401C393.875 62.1601 392.145 62.3501 390.455 62.3201C388.715 62.2901 386.975 62.3101 385.225 62.3101C383.485 62.3101 381.735 62.2501 379.995 62.3301C378.355 62.4101 376.625 61.9301 374.695 62.9101C375.485 63.2901 375.945 63.5701 376.435 63.7301C379.085 64.5701 379.115 64.5601 379.115 67.2701C379.125 73.2901 379.125 79.3101 379.115 85.3201C379.115 86.1601 378.985 86.9901 378.915 87.8801C378.435 87.8101 378.175 87.8401 377.985 87.7401C373.925 85.7201 370.205 83.1801 366.745 80.2601C365.915 79.5601 365.755 78.7201 365.765 77.7301C365.785 74.0901 365.755 70.4501 365.775 66.8001C365.785 64.6901 365.825 64.7201 367.865 63.9801C368.595 63.7201 369.595 63.7801 369.905 62.7101C367.685 62.1701 351.255 62.1801 349.145 62.7701ZM206.125 109.23C205.285 108.13 205.285 108.13 203.355 107.67C201.045 107.12 200.985 107.11 200.985 104.91C200.965 92.2401 200.965 79.5801 200.985 66.9101C200.985 64.7301 201.035 64.7501 203.265 63.9901C204.005 63.7401 204.995 63.7901 205.435 62.4001C203.515 62.3701 201.805 62.3401 200.095 62.3301C198.355 62.3201 196.615 62.3301 194.865 62.3301C193.125 62.3301 191.375 62.2701 189.635 62.3501C187.975 62.4201 186.245 61.9601 184.195 62.9801C185.875 63.6301 187.145 64.1301 188.615 64.7001C188.615 67.3701 188.615 69.9701 188.615 72.5701C188.615 75.1001 188.655 77.6401 188.605 80.1701C188.555 82.7201 188.845 85.3001 188.415 87.8001C187.975 87.8001 187.795 87.8501 187.665 87.7901C183.415 85.7801 179.555 83.1501 176.075 80.0101C175.535 79.5201 175.275 78.4901 175.255 77.7001C175.165 74.1401 175.205 70.5801 175.215 67.0101C175.225 64.7201 175.255 64.7401 177.375 64.0101C178.125 63.7501 179.125 63.8201 179.615 62.6701C177.265 62.0201 174.985 62.4201 172.755 62.3501C170.385 62.2801 168.005 62.2901 165.625 62.3501C163.405 62.4001 161.145 62.1001 158.915 62.8501C159.415 63.3601 159.935 63.6401 160.485 63.8101C162.855 64.5601 162.875 64.5501 162.875 67.0901C162.885 79.6001 162.885 92.1101 162.875 104.62C162.875 107.12 162.835 107.07 160.405 107.82C159.605 108.07 158.485 107.9 157.985 109.13C158.385 109.27 158.655 109.45 158.935 109.45C165.665 109.47 172.395 109.48 179.125 109.45C179.505 109.45 179.875 109.14 180.275 108.96C180.105 108.66 180.055 108.44 179.945 108.4C179.125 108.14 178.295 107.88 177.465 107.67C175.255 107.13 175.215 107.14 175.215 104.83C175.195 98.4201 175.205 92.0001 175.215 85.5901C175.215 84.9101 175.335 84.2301 175.425 83.3401C175.995 83.5701 176.365 83.6601 176.675 83.8501C180.245 86.0301 183.795 88.2701 187.395 90.4001C188.385 90.9801 188.615 91.7301 188.615 92.7401C188.595 96.7001 188.625 100.66 188.605 104.62C188.595 107.13 188.565 107.08 186.145 107.83C185.355 108.07 184.225 107.88 183.655 109.48C191.335 109.48 198.705 109.49 206.125 109.23ZM138.235 74.0801C138.065 73.4101 137.885 72.8901 137.795 72.3501C137.245 69.1401 135.405 66.8301 132.615 65.3501C130.815 64.3901 128.895 63.5301 126.935 63.0001C120.975 61.3801 114.905 61.0301 108.805 62.0901C103.785 62.9601 99.2654 64.9501 95.5354 68.5301C90.3054 73.5601 88.9954 79.4201 91.9254 86.0701C93.0354 88.5801 94.3954 91.1001 96.1454 93.1901C100.715 98.6501 105.575 103.87 110.275 109.22C111.175 110.25 112.215 110.52 113.465 110.22C115.155 109.82 116.885 109.5 118.525 108.95C129.025 105.4 136.515 99.0901 137.955 87.3801C138.085 86.3401 138.585 85.8701 139.525 85.5901C140.435 85.3101 141.305 84.9001 142.195 84.5501C142.155 84.3501 142.115 84.1401 142.075 83.9401C139.855 83.5401 137.595 83.7901 135.355 83.7501C132.975 83.7101 130.605 83.7001 128.225 83.7501C126.005 83.8001 123.755 83.5301 121.555 83.9301C121.535 84.1301 121.505 84.3201 121.485 84.5201C122.755 85.0201 124.025 85.5201 125.215 85.9901C126.245 92.4201 122.865 103.29 115.695 105.13C112.575 101.36 109.465 97.4701 107.055 93.0801C106.065 91.2801 105.115 89.4201 104.495 87.4701C102.315 80.6701 102.915 74.1801 107.155 68.2601C108.565 66.2801 110.435 64.8201 112.745 64.0101C120.455 61.3201 126.625 68.7501 125.165 73.9901C124.105 75.0201 122.265 74.5901 121.205 76.1001C121.725 76.2901 122.065 76.5301 122.415 76.5301C128.755 76.5501 135.095 76.5601 141.435 76.5301C141.805 76.5301 142.165 76.1901 142.535 76.0001C142.545 75.8401 142.545 75.6801 142.555 75.5201C141.175 75.0601 139.795 74.6001 138.235 74.0801ZM356.665 128.9C356.495 128.9 356.325 128.91 356.155 128.91C355.895 129.64 355.605 130.37 355.365 131.11C353.845 135.78 352.345 140.45 350.825 145.11C349.775 148.33 350.155 148.01 346.705 148.02C341.555 148.03 336.405 148.01 331.265 148.02C330.675 148.02 330.085 148.1 329.095 148.16C329.935 148.83 330.395 149.24 330.895 149.6C335.125 152.67 339.355 155.73 343.595 158.8C346.125 160.63 345.935 160.19 344.965 163.23C343.365 168.2 341.725 173.16 340.115 178.13C339.935 178.69 339.865 179.28 339.665 180.25C340.715 179.53 341.435 179.06 342.125 178.56C346.345 175.48 350.565 172.39 354.795 169.32C356.415 168.14 356.445 168.14 358.095 169.34C362.385 172.45 366.665 175.59 370.965 178.71C371.585 179.16 372.245 179.58 373.305 180.29C372.995 179.1 372.835 178.36 372.605 177.64C370.975 172.6 369.315 167.56 367.685 162.51C367.025 160.46 367.025 160.44 368.735 159.2C373.215 155.94 377.715 152.7 382.195 149.44C382.635 149.12 383.005 148.69 383.715 148.03C377.275 148.03 371.345 148.04 365.405 148.03C362.995 148.03 362.965 148.02 362.235 145.76C360.635 140.87 359.075 135.97 357.485 131.08C357.215 130.34 356.925 129.62 356.665 128.9ZM406.275 564.5C407.105 563.8 407.705 563.3 408.285 562.78C409.405 561.77 410.585 560.83 411.595 559.72C415.025 555.94 415.165 551.95 412.055 547.91C409.895 545.11 407.135 543.01 404.105 541.23C400.815 539.29 397.495 539.33 394.155 541.06C390.805 542.8 387.905 545.11 385.585 548.08C381.105 553.82 381.725 559.17 387.335 563.85C387.965 564.38 388.585 564.93 389.315 565.57C387.635 566.87 386.125 567.89 384.785 569.09C380.395 573.01 379.575 577.98 382.635 582.97C385.475 587.6 389.545 590.96 394.425 593.32C396.195 594.18 398.045 594.41 399.955 593.74C405.835 591.68 410.845 588.32 414.825 583.53C416.475 581.54 416.915 579.17 416.505 576.6C415.995 573.41 414.615 570.74 412.035 568.76C410.225 567.38 408.365 566.05 406.275 564.5ZM459.445 67.5001C458.995 67.2901 458.595 66.9701 458.195 66.9501C456.045 66.8901 454.255 65.8701 452.425 64.9301C447.085 62.2001 441.425 61.0801 435.425 61.4201C429.735 61.7501 424.585 63.4901 419.955 66.8201C413.115 71.7501 410.445 78.2501 412.585 86.5201C414.395 93.5001 417.515 99.8701 421.915 105.59C422.585 106.46 423.395 107.25 424.215 107.99C426.115 109.7 428.315 110.57 430.935 110.42C438.265 110.01 443.945 106.37 448.915 101.33C449.445 100.79 449.985 100.1 449.185 98.9501C448.495 99.2401 447.715 99.4901 447.015 99.8801C445.015 101 443.135 102.38 441.045 103.28C436.665 105.16 432.455 103.84 429.805 99.9001C427.555 96.5501 426.775 92.6801 425.845 88.6401C427.015 88.3201 428.025 88.1401 428.955 87.7601C433.345 85.9701 437.815 84.3301 442.065 82.2501C447.115 79.7701 451.505 76.4101 453.915 71.0601C454.555 69.6401 455.625 68.9101 457.185 68.6701C457.945 68.5701 458.985 68.7301 459.445 67.5001ZM422.515 580.11C422.965 580.15 423.135 580.22 423.275 580.17C429.695 577.93 436.345 577.94 443.015 578.13C445.395 578.2 445.475 578.31 445.495 580.8C445.515 583.33 445.515 585.87 445.485 588.4C445.475 589.16 445.355 589.93 445.275 590.85C444.235 590.91 443.385 590.97 442.535 591C441.905 591.03 441.245 590.93 440.645 591.08C440.295 591.17 439.795 591.64 439.805 591.93C439.815 592.26 440.265 592.69 440.625 592.85C441.035 593.03 441.555 592.97 442.035 592.97C447.425 592.98 452.815 592.97 458.205 592.97C458.605 592.97 459.005 592.97 459.385 592.9C460.475 592.71 460.575 592.09 460.125 591.17C458.515 591.04 456.985 590.91 455.525 590.79C454.955 587.53 455.105 579.97 455.785 578.18C457.515 578.41 459.285 578.65 461.015 578.88C462.305 576.21 463.395 571.37 463.095 569.77C460.605 570.31 458.185 571.52 455.425 570.75C455.355 570.04 455.225 569.42 455.225 568.81C455.225 562.95 455.215 557.09 455.275 551.22C455.305 548.43 455.865 545.72 456.925 543.12C457.215 542.41 457.455 541.68 457.745 540.85C456.925 540.42 456.315 540.07 455.695 539.77C454.985 539.42 454.385 539.56 453.755 540.1C450.445 542.94 447.075 545.69 443.775 548.54C435.175 555.97 428.665 565.16 422.215 574.38C421.835 574.92 421.565 575.71 421.635 576.34C421.795 577.66 422.215 578.93 422.515 580.11ZM317.405 590.84C316.145 590.9 315.205 590.88 314.275 591C313.435 591.11 312.205 590.5 311.985 591.97C311.845 592.88 312.425 593.18 314.315 593.18C320.095 593.19 325.875 593.19 331.655 593.18C332.125 593.18 332.655 593.26 333.065 593.08C333.415 592.92 333.915 592.4 333.855 592.15C333.765 591.73 333.345 591.23 332.945 591.07C332.465 590.87 331.855 591.01 331.305 590.97C330.395 590.91 329.485 590.82 328.445 590.73C328.395 589.7 328.325 588.92 328.325 588.14C328.315 585.37 328.315 582.6 328.315 579.83C328.315 567.4 328.315 554.98 328.295 542.55C328.295 541.67 328.595 540.68 327.815 539.84C327.325 540.1 326.885 540.29 326.495 540.54C322.185 543.32 317.465 545.09 312.485 546.23C312.095 546.32 311.695 546.35 311.325 546.46C310.485 546.71 310.255 547.31 310.435 548.13C310.605 548.94 311.175 549.09 311.865 548.99C312.565 548.89 313.265 548.68 313.965 548.63C315.985 548.49 317.115 549.39 317.405 551.39C317.535 552.33 317.545 553.28 317.545 554.23C317.555 565.55 317.555 576.87 317.545 588.19C317.555 588.98 317.465 589.76 317.405 590.84ZM366.895 551.79C366.445 552.76 366.155 553.4 365.845 554.03C363.245 559.27 360.525 564.46 358.065 569.77C354.305 577.88 350.815 586.11 348.675 594.84C348.445 595.79 348.325 596.78 348.165 597.69C351.235 598.28 354.005 598.8 356.755 599.32C356.865 599.11 356.995 598.97 356.995 598.83C357.005 598.36 356.965 597.89 356.935 597.42C356.665 593.3 356.785 589.21 357.725 585.16C358.935 579.96 361.025 575.1 363.185 570.26C367.465 560.65 371.395 550.88 377.055 541.94C377.135 541.82 377.115 541.64 377.135 541.48C375.385 539.29 375.415 539.44 372.805 540.02C370.345 540.56 367.825 540.98 365.315 541.04C359.475 541.17 353.615 541.4 347.535 540.22C346.305 544.4 345.125 548.44 343.905 552.62C345.075 553.07 345.935 553.4 346.905 553.77C347.995 551.85 349.765 551.57 351.635 551.55C356.065 551.52 360.495 551.51 364.935 551.51C365.465 551.52 365.985 551.66 366.895 551.79ZM223.995 62.3501C223.925 62.6101 223.855 62.8701 223.785 63.1301C224.545 63.4001 225.275 63.7801 226.055 63.9301C227.365 64.1801 228.215 64.8501 228.495 66.1601C229.145 69.2501 229.805 72.3401 230.415 75.4401C230.755 77.1801 230.235 78.4101 228.465 79.2201C226.925 79.9301 225.825 81.2401 225.655 83.0801C225.425 85.4901 226.705 87.0501 228.755 87.8901C230.305 88.5301 230.765 89.5301 230.515 91.0301C229.785 95.3901 228.955 99.7401 228.325 104.12C227.995 106.39 226.985 107.71 224.645 107.97C223.955 108.05 223.055 108.06 222.705 109.45C224.785 109.46 226.655 109.48 228.525 109.48C230.345 109.49 232.165 109.48 233.995 109.48C235.895 109.48 237.805 109.55 239.695 109.46C241.515 109.37 243.415 109.89 245.505 108.92C244.345 107.9 243.125 107.83 242.035 107.66C240.585 107.43 239.825 106.7 239.485 105.29C238.435 100.98 237.555 96.6501 237.355 92.1901C237.265 90.0201 237.455 88.2701 239.895 87.5901C240.255 87.4901 240.555 87.1601 240.845 86.9001C243.065 84.9201 243.145 82.3601 240.985 80.2901C240.365 79.7001 239.645 79.1301 238.865 78.8001C237.715 78.3201 237.265 77.5401 237.465 76.3901C238.015 73.2801 238.585 70.1801 239.215 67.0901C239.605 65.2001 240.725 64.0201 242.745 63.8201C243.475 63.7501 244.315 63.6901 244.725 62.3601C237.675 62.3101 230.835 62.3201 223.995 62.3501Z" fill="#E62D31"/>
<path d="M140.777 343.66C186.847 300.69 232.757 257.86 278.897 214.83C284.427 220.87 289.827 226.73 295.207 232.62C300.657 238.58 306.067 244.59 311.547 250.52C316.937 256.36 322.187 262.34 327.707 268.06C327.887 268 328.067 267.93 328.237 267.87C328.277 266.88 328.357 265.9 328.357 264.91C328.367 242.65 328.357 220.4 328.367 198.14C328.367 197.05 328.457 195.96 328.497 194.95C330.577 194.28 382.077 194.2 384.577 194.86C384.637 195.55 384.727 196.32 384.747 197.09C384.787 198.44 384.717 199.79 384.797 201.13C384.927 203.21 385.237 203.47 387.347 203.66C398.027 204.63 406.347 211.88 408.347 222.27C409.667 229.14 408.217 235.5 403.797 241.05C402.967 242.1 402.047 243.08 400.957 244.34C401.597 245.5 402.157 246.8 402.957 247.93C414.057 263.65 425.177 279.36 436.317 295.06C442.277 303.46 448.277 311.82 454.257 320.2C454.487 320.52 454.727 320.84 454.937 321.17C456.837 324.18 459.497 325.64 463.127 325.35C464.927 325.2 466.757 325.32 468.857 325.32C468.957 326.27 469.127 327.1 469.127 327.93C469.147 345.59 469.137 363.26 469.127 380.92C469.127 381.69 469.017 382.46 468.947 383.43C467.607 383.48 466.447 383.57 465.277 383.57C392.227 383.58 319.177 383.58 246.127 383.58C222.357 383.58 198.587 383.56 174.817 383.62C172.717 383.63 171.357 383.01 170.047 381.32C160.847 369.41 151.527 357.6 142.247 345.75C141.827 345.19 141.447 344.6 140.777 343.66ZM385.507 281.32C384.537 284.35 384.677 326.01 385.217 327.87C385.697 327.94 386.227 328.09 386.757 328.09C396.347 328.1 405.927 328.11 415.517 328.09C416.007 328.09 416.497 327.87 417.337 327.68C406.607 312.06 396.057 296.69 385.507 281.32Z" fill="#E6AC5D"/>
<path d="M307.317 183.13C306.607 183.91 306.157 184.45 305.667 184.94C299.227 191.39 292.747 197.79 286.367 204.29C285.087 205.59 284.057 205.93 282.257 205.2C271.787 200.93 260.937 197.96 249.667 196.98C214.667 193.93 183.257 202.86 156.317 225.83C151.757 229.71 147.817 234.34 143.767 238.78C128.937 255.06 120.637 274.52 116.257 295.85C114.077 306.46 113.307 317.19 113.957 327.99C114.897 343.78 118.997 358.71 126.507 372.69C131.697 382.34 137.437 391.61 144.507 400.03C148.607 404.91 153.357 409.09 158.397 412.96C160.717 414.75 163.057 416.52 165.427 418.24C181.777 430.12 200.077 437.21 219.977 440.2C235.397 442.52 250.617 440.92 265.697 437.33C295.777 430.16 318.977 413.1 336.717 388.14C337.127 387.56 337.537 386.97 337.957 386.4C338.047 386.28 338.197 386.2 338.497 385.97C339.007 386.29 339.627 386.6 340.157 387.01C346.877 392.17 353.597 397.34 360.297 402.53C360.847 402.96 361.357 403.49 361.767 404.07C366.137 410.29 370.477 416.53 374.827 422.78C375.007 423.03 375.127 423.33 375.437 423.9C365.157 434.34 354.857 444.82 344.407 455.43C337.347 450.59 330.437 445.86 323.497 441.11C320.557 442.95 317.757 444.74 314.937 446.47C302.367 454.18 289.127 460.32 274.717 463.71C271.867 464.38 268.987 464.93 266.107 465.43C264.627 465.69 263.797 466.29 263.397 467.88C261.707 474.56 259.877 481.2 258.077 487.85C257.437 490.2 257.417 490.23 255.037 490.23C242.437 490.23 229.837 490.23 217.237 490.21C214.987 490.21 214.967 490.17 214.437 487.88C212.967 481.48 211.457 475.08 210.077 468.66C209.727 467.05 208.997 466.24 207.357 465.94C188.157 462.37 170.627 454.75 154.367 444.06C150.437 441.47 151.747 441.34 147.657 444.07C142.917 447.25 138.237 450.5 133.517 453.71C132.607 454.33 131.687 454.92 130.507 455.7C119.887 445.03 109.427 434.38 98.8966 423.56C99.4066 422.73 99.8466 421.99 100.307 421.28C103.807 415.9 107.257 410.49 110.847 405.18C111.847 403.7 111.757 402.64 110.817 401.17C105.137 392.29 99.9066 383.16 95.9166 373.35C92.4066 364.73 89.9766 355.8 88.4566 346.64C88.1466 344.8 87.3066 344.15 85.6666 343.74C78.9866 342.08 72.3266 340.32 65.6566 338.6C63.6066 338.07 63.5466 338.06 63.5466 336.13C63.5366 323.53 63.5366 310.94 63.5466 298.34C63.5466 297.8 63.6366 297.25 63.7066 296.55C64.5466 296.3 65.3566 296.02 66.1866 295.82C72.4866 294.25 78.7666 292.61 85.1066 291.19C87.1166 290.74 87.9266 289.83 88.3366 287.83C91.6866 271.67 97.1666 256.28 105.387 241.92C107.197 238.76 109.177 235.7 111.217 232.68C112.057 231.44 112.057 230.52 111.247 229.28C107.477 223.51 103.787 217.69 100.067 211.89C99.6866 211.3 99.3566 210.67 98.9366 209.96C99.4166 209.37 99.8066 208.78 100.307 208.29C109.657 198.93 119.007 189.57 128.387 180.25C130.157 178.49 130.217 178.55 132.387 180.02C137.957 183.8 143.527 187.59 149.097 191.36C150.927 192.6 150.937 192.59 152.817 191.33C168.997 180.43 186.757 173.36 205.827 169.44C206.137 169.38 206.447 169.3 206.767 169.29C209.007 169.21 209.987 168.05 210.477 165.85C211.897 159.52 213.577 153.24 215.157 146.94C215.367 146.11 215.627 145.29 215.887 144.37C229.697 144.37 243.377 144.37 257.277 144.37C257.607 145.38 257.987 146.4 258.257 147.44C259.887 153.64 261.547 159.84 263.087 166.06C263.537 167.87 264.267 168.81 266.287 169.17C278.937 171.4 290.747 176.22 302.517 181.16C304.007 181.76 305.467 182.36 307.317 183.13Z" fill="#E6AC5D"/>
<path d="M219.516 688.33C218.136 685.94 216.896 683.83 215.686 681.7C215.496 681.37 215.416 680.99 215.196 680.39C219.646 677.79 224.046 675.22 228.876 672.39C224.166 669.65 219.876 667.17 215.296 664.5C217.266 661.13 219.146 657.9 221.156 654.47C225.666 657.04 229.896 659.46 234.496 662.08C235.016 659.17 234.736 656.67 234.786 654.19C234.836 651.67 234.796 649.14 234.796 646.3C237.896 646.06 240.766 646.2 243.896 646.21C243.966 647.21 244.076 648.05 244.076 648.89C244.086 654.36 244.146 659.82 244.046 665.29C244.016 667.03 244.656 668.01 246.136 668.84C253.036 672.73 259.876 676.72 266.746 680.66C267.336 681 267.996 681.24 268.886 681.64C268.976 680.7 269.096 680.02 269.096 679.35C269.106 671.35 269.066 663.35 269.136 655.35C269.146 653.72 268.626 652.76 267.176 651.96C262.456 649.36 257.816 646.63 253.146 643.94C252.396 643.51 251.686 643.03 250.686 642.41C251.976 639.69 253.536 637.27 255.186 634.53C259.766 637.13 264.196 639.65 268.906 642.32C269.006 641.42 269.116 640.83 269.116 640.25C269.126 636.69 269.096 633.12 269.106 629.56C269.106 628.72 269.226 627.87 269.306 626.88C273.126 626.88 276.726 626.88 280.666 626.88C280.896 631.97 280.616 636.99 280.816 642.49C285.736 639.92 290.046 637.17 294.466 634.75C295.896 636 297.896 639.23 299.216 642.42C298.546 642.85 297.856 643.34 297.126 643.76C292.256 646.57 287.396 649.41 282.496 652.16C281.246 652.86 280.726 653.73 280.736 655.18C280.786 663.34 280.756 671.5 280.776 679.66C280.776 680.26 280.906 680.86 281.016 681.75C281.926 681.32 282.646 681.05 283.306 680.67C290.246 676.69 297.156 672.66 304.136 668.74C305.586 667.93 306.106 666.97 306.076 665.35C305.996 659.96 306.046 654.58 306.046 649.19C306.046 648.33 306.046 647.47 306.046 646.31C309.056 646.07 311.846 646.14 314.976 646.29C315.106 651.7 314.216 656.93 314.146 662.61C319.336 660.28 323.746 657.08 328.566 654.75C329.936 656.05 333.206 661.45 334.476 664.58C330.286 667.21 325.806 669.5 321.176 672.38C325.946 675.16 330.356 677.73 335.056 680.47C333.526 683.1 332.086 685.6 330.496 688.33C329.596 687.86 328.846 687.49 328.126 687.08C323.386 684.36 318.626 681.68 313.936 678.86C312.476 677.98 311.326 677.89 309.816 678.78C302.926 682.84 295.966 686.79 289.036 690.79C288.436 691.14 287.876 691.55 287.106 692.05C287.666 692.51 288.036 692.9 288.486 693.15C295.686 697.32 302.906 701.44 310.086 705.64C311.336 706.37 312.296 706.4 313.556 705.66C318.396 702.79 323.296 700.03 328.166 697.23C328.846 696.84 329.546 696.49 330.506 695.98C332.006 698.56 333.456 701.06 335.046 703.79C330.466 706.46 326.046 709.03 321.296 711.8C323.496 713.54 325.766 714.58 327.886 715.85C330.046 717.14 332.236 718.38 334.706 719.81C332.746 723.19 330.896 726.37 328.896 729.82C324.306 727.22 319.876 724.71 315.036 721.96C314.706 724.97 315.046 727.55 315.006 730.11C314.966 732.7 314.996 735.28 314.996 738.03C311.996 738.03 309.266 738.03 306.236 738.03C306.166 737.12 306.046 736.21 306.046 735.3C306.026 729.91 305.986 724.53 306.076 719.14C306.106 717.43 305.546 716.4 304.036 715.55C297.136 711.66 290.296 707.67 283.426 703.72C282.756 703.34 282.046 703.03 281.106 702.56C280.966 703.4 280.786 703.98 280.786 704.57C280.766 712.81 280.796 721.05 280.736 729.29C280.726 730.69 281.296 731.45 282.446 732.09C287.346 734.86 292.206 737.68 297.076 740.49C297.816 740.91 298.516 741.39 299.406 741.96C297.846 744.64 296.386 747.14 294.836 749.79C290.166 747.14 285.736 744.63 280.786 741.82C280.786 747.26 280.786 752.11 280.786 757.17C276.796 757.52 273.146 757.75 269.276 757.47C269.276 752.38 269.276 747.52 269.276 742.25C264.306 744.55 260.006 747.33 255.126 749.76C253.566 747.28 252.136 744.79 250.686 742.01C251.516 741.46 252.196 740.97 252.926 740.55C257.796 737.74 262.656 734.91 267.566 732.16C268.746 731.5 269.266 730.69 269.256 729.33C269.176 720.93 269.146 712.54 269.096 704.14C269.096 703.75 268.986 703.37 268.896 702.73C268.226 702.98 267.636 703.11 267.136 703.4C259.986 707.49 252.866 711.63 245.706 715.7C244.526 716.37 244.066 717.21 244.086 718.56C244.156 724.03 244.146 729.49 244.156 734.96C244.156 735.9 244.156 736.84 244.156 738.11C241.006 738.35 238.066 738.24 234.916 738.11C234.846 737.18 234.746 736.42 234.726 735.65C234.656 732.17 234.626 728.68 234.556 725.19C234.536 724.36 234.396 723.53 234.276 722.32C229.746 724.91 225.576 727.29 221.156 729.83C219.206 726.5 217.346 723.32 215.306 719.85C219.786 717.25 224.136 714.74 228.926 711.96C224.096 709.14 219.686 706.57 215.016 703.85C216.576 701.15 218.016 698.66 219.576 695.96C220.536 696.48 221.286 696.87 222.016 697.29C226.756 700.01 231.516 702.71 236.216 705.49C237.566 706.29 238.646 706.44 240.106 705.58C246.996 701.51 253.956 697.57 260.886 693.57C261.496 693.22 262.056 692.8 262.836 692.28C262.326 691.82 261.996 691.4 261.566 691.15C254.296 686.95 246.996 682.79 239.756 678.56C238.546 677.85 237.626 678 236.486 678.67C231.706 681.47 226.876 684.2 222.066 686.95C221.306 687.38 220.536 687.78 219.516 688.33Z" fill="#E6AC5D"/>
<path d="M327.528 107.06C329.198 107.55 330.798 108.01 332.938 108.64C332.088 109.11 331.798 109.42 331.498 109.42C326.348 109.43 321.208 109.41 316.058 109.39C315.918 109.39 315.778 109.26 315.448 109.09C315.508 108.49 315.508 107.79 315.668 107.14C316.328 104.52 316.078 101.94 315.378 99.3901C313.378 92.1201 308.608 86.6401 303.458 80.8701C303.238 81.7801 303.038 82.2601 303.028 82.7501C302.908 90.1101 302.798 97.4801 302.728 104.84C302.708 107.08 302.788 107.11 305.018 107.67C306.028 107.92 307.028 108.25 307.988 108.86C305.538 109.79 303.038 109.39 300.588 109.46C298.138 109.53 295.678 109.48 293.218 109.48C290.708 109.48 288.198 109.48 285.548 109.48C285.678 108.18 286.468 108.2 287.098 108.01C290.358 107.05 290.368 107.87 290.358 103.76C290.348 97.1901 290.358 90.6101 290.358 84.0401C290.358 83.1801 290.358 82.3201 290.358 81.0701C289.598 81.5401 289.108 81.7301 288.778 82.0801C285.528 85.4601 282.588 89.0901 280.328 93.2201C277.628 98.1401 276.098 103.29 277.768 109.05C275.848 109.87 273.948 109.4 272.108 109.48C270.208 109.56 268.308 109.53 266.408 109.49C264.568 109.45 262.678 109.72 260.578 109.15C261.868 107.36 263.898 108.09 265.318 106.91C265.178 106.35 265.078 105.67 264.848 105.04C263.688 101.86 264.348 98.9701 266.208 96.2601C268.248 93.2901 270.858 90.8601 273.658 88.6401C277.068 85.9301 280.548 83.3101 283.968 80.6101C284.898 79.8801 285.788 79.0701 286.588 78.2001C287.808 76.8801 287.788 75.7501 286.518 74.4701C285.918 73.8601 285.198 73.2701 284.418 72.9601C282.358 72.1601 280.258 71.5001 278.148 70.8401C275.688 70.0701 273.678 70.9601 271.848 72.6001C270.968 73.3901 270.028 74.1501 268.988 74.6901C267.608 75.4101 266.138 75.5801 264.678 74.2801C264.888 73.5501 265.078 72.7901 265.338 72.0601C266.198 69.6501 265.748 67.5701 263.938 65.7401C263.008 64.8001 262.048 63.8501 261.588 62.2101C262.518 61.9401 263.308 61.5801 264.108 61.5101C271.398 60.9001 277.938 62.8201 283.458 67.6701C285.288 69.2801 286.788 71.2601 288.428 73.0801C288.838 73.5301 289.208 74.0201 289.648 74.5501C290.388 72.7901 290.598 67.6601 290.088 64.5201C288.898 64.0501 287.648 63.5501 286.098 62.9301C288.198 62.1401 304.498 62.0301 307.048 62.6601C306.598 63.7401 305.538 63.6901 304.728 63.9801C302.788 64.6601 302.748 64.6401 302.718 66.6301C302.678 68.8501 302.698 71.0701 302.718 73.2801C302.718 73.7201 302.828 74.1601 302.948 74.9901C303.618 74.2801 304.028 73.8601 304.418 73.4201C306.428 71.1801 308.318 68.8301 310.458 66.7301C314.948 62.3301 320.488 60.9001 326.628 61.5301C327.308 61.6001 327.958 61.9201 328.898 62.2001C328.558 63.1001 328.368 63.8501 328.008 64.5001C327.088 66.1201 327.198 67.6701 328.108 69.2301C328.818 70.4401 329.518 71.6601 330.248 72.9201C328.948 74.0301 327.638 74.4501 326.178 73.9201C324.698 73.3801 323.238 72.7501 321.828 72.0401C317.358 69.8201 310.638 70.7101 306.938 74.0701C305.248 75.6001 305.108 76.9101 306.808 78.4901C308.958 80.4801 311.248 82.3201 313.538 84.1301C316.208 86.2401 319.038 88.1601 321.628 90.3601C323.488 91.9301 325.278 93.6801 326.738 95.6201C329.038 98.6601 329.548 102.1 327.968 105.71C327.808 106.07 327.728 106.45 327.528 107.06Z" fill="#E6AC5D"/>
<path d="M349.146 62.7701C351.256 62.1901 367.696 62.1701 369.886 62.7401C369.576 63.8101 368.576 63.7501 367.846 64.0101C365.806 64.7401 365.766 64.7201 365.756 66.8301C365.736 70.4701 365.756 74.1101 365.746 77.7601C365.746 78.7501 365.896 79.5901 366.726 80.2901C370.186 83.2201 373.906 85.7501 377.966 87.7701C378.156 87.8701 378.406 87.8401 378.896 87.9101C378.966 87.0201 379.096 86.1801 379.096 85.3501C379.116 79.3301 379.116 73.3101 379.096 67.3001C379.086 64.5801 379.066 64.6001 376.416 63.7601C375.916 63.6001 375.466 63.3201 374.676 62.9401C376.606 61.9601 378.326 62.4401 379.976 62.3601C381.716 62.2801 383.456 62.3401 385.206 62.3401C386.946 62.3401 388.696 62.3201 390.436 62.3501C392.136 62.3801 393.856 62.1901 395.696 62.5701C395.286 63.8801 394.266 63.8001 393.536 64.0701C391.566 64.8001 391.506 64.7601 391.506 66.6801C391.486 79.5101 391.486 92.3301 391.506 105.16C391.506 107.14 391.596 107.15 393.586 107.66C394.496 107.89 395.396 108.18 396.286 108.47C396.396 108.51 396.446 108.72 396.606 109C396.276 109.16 395.956 109.45 395.636 109.45C388.826 109.48 382.016 109.47 375.206 109.46C374.926 109.46 374.646 109.29 374.236 109.16C374.696 107.9 375.826 108.07 376.626 107.83C379.046 107.09 379.086 107.14 379.096 104.61C379.116 100.81 379.056 97.0101 379.116 93.2101C379.146 91.6701 378.546 90.8301 377.176 90.0701C373.996 88.3101 370.956 86.3001 367.856 84.4001C367.336 84.0801 366.806 83.7701 366.046 83.3101C365.916 84.1201 365.756 84.7101 365.756 85.2901C365.736 91.8601 365.736 98.4301 365.746 105.01C365.756 107.16 365.796 107.15 367.896 107.69C368.906 107.95 369.896 108.29 370.856 108.91C368.406 109.83 365.906 109.44 363.446 109.51C360.996 109.58 358.536 109.58 356.076 109.51C353.606 109.44 351.086 109.84 348.496 109.19C349.026 107.88 350.146 108.06 350.956 107.81C353.156 107.11 353.206 107.16 353.206 104.92C353.216 92.2501 353.216 79.5801 353.206 66.9101C353.206 64.5501 353.176 64.5501 350.866 63.8401C350.416 63.7001 349.976 63.5301 349.546 63.3401C349.436 63.2501 349.366 63.0701 349.146 62.7701Z" fill="#E6AC5D"/>
<path d="M206.126 109.23C198.716 109.49 191.336 109.48 183.666 109.48C184.236 107.87 185.366 108.07 186.156 107.83C188.576 107.08 188.606 107.13 188.616 104.62C188.626 100.66 188.606 96.7001 188.626 92.7401C188.626 91.7301 188.396 90.9801 187.406 90.4001C183.796 88.2701 180.256 86.0301 176.686 83.8501C176.376 83.6601 176.006 83.5701 175.436 83.3401C175.346 84.2401 175.236 84.9101 175.226 85.5901C175.216 92.0001 175.206 98.4201 175.226 104.83C175.236 107.14 175.266 107.13 177.476 107.67C178.316 107.87 179.136 108.13 179.956 108.4C180.066 108.43 180.116 108.65 180.286 108.96C179.896 109.14 179.516 109.45 179.136 109.45C172.406 109.48 165.676 109.47 158.946 109.45C158.666 109.45 158.396 109.27 157.996 109.13C158.496 107.9 159.606 108.06 160.416 107.82C162.856 107.07 162.886 107.12 162.886 104.62C162.896 92.1101 162.896 79.6001 162.886 67.0901C162.886 64.5501 162.866 64.5601 160.496 63.8101C159.946 63.6401 159.426 63.3601 158.926 62.8501C161.156 62.1001 163.416 62.4101 165.636 62.3501C168.006 62.2901 170.386 62.2801 172.766 62.3501C175.006 62.4201 177.276 62.0101 179.626 62.6701C179.136 63.8301 178.136 63.7501 177.386 64.0101C175.266 64.7401 175.236 64.7201 175.226 67.0101C175.206 70.5701 175.176 74.1401 175.266 77.7001C175.286 78.4901 175.546 79.5301 176.086 80.0101C179.566 83.1501 183.416 85.7801 187.676 87.7901C187.806 87.8501 187.976 87.8001 188.426 87.8001C188.856 85.3001 188.566 82.7201 188.616 80.1701C188.666 77.6401 188.626 75.1001 188.626 72.5701C188.626 69.9701 188.626 67.3701 188.626 64.7001C187.166 64.1301 185.886 63.6301 184.206 62.9801C186.246 61.9501 187.986 62.4201 189.646 62.3501C191.386 62.2701 193.126 62.3301 194.876 62.3301C196.616 62.3301 198.356 62.3201 200.106 62.3301C201.816 62.3401 203.526 62.3801 205.446 62.4001C205.016 63.7901 204.016 63.7401 203.276 63.9901C201.046 64.7501 200.996 64.7201 200.996 66.9101C200.986 79.5801 200.976 92.2401 200.996 104.91C200.996 107.11 201.056 107.13 203.366 107.67C205.286 108.13 205.286 108.13 206.126 109.23Z" fill="#E6AC5D"/>
<path d="M138.238 74.0799C139.798 74.5999 141.178 75.0499 142.548 75.5099C142.538 75.6699 142.538 75.8299 142.528 75.9899C142.158 76.1699 141.798 76.5199 141.428 76.5199C135.088 76.5499 128.748 76.5499 122.408 76.5199C122.058 76.5199 121.718 76.2799 121.198 76.0899C122.258 74.5899 124.108 75.0199 125.158 73.9799C126.618 68.7399 120.448 61.3099 112.738 63.9999C110.418 64.8099 108.558 66.2699 107.148 68.2499C102.908 74.1799 102.308 80.6699 104.488 87.4599C105.108 89.3999 106.058 91.2699 107.048 93.0699C109.458 97.4499 112.568 101.35 115.688 105.12C122.858 103.28 126.228 92.4099 125.208 85.9799C124.018 85.5099 122.748 85.0099 121.478 84.5099C121.498 84.3099 121.528 84.1199 121.548 83.9199C123.738 83.5199 125.998 83.7899 128.218 83.7399C130.598 83.6899 132.968 83.6999 135.348 83.7399C137.588 83.7799 139.848 83.5399 142.068 83.9299C142.108 84.1299 142.148 84.3399 142.188 84.5399C141.298 84.8899 140.428 85.3099 139.518 85.5799C138.578 85.8599 138.078 86.3299 137.948 87.3699C136.508 99.0799 129.018 105.39 118.518 108.94C116.878 109.5 115.148 109.81 113.458 110.21C112.208 110.5 111.168 110.23 110.268 109.21C105.558 103.86 100.698 98.6399 96.1382 93.1799C94.3882 91.0899 93.0282 88.5699 91.9182 86.0599C88.9982 79.4099 90.2982 73.5599 95.5282 68.5199C99.2482 64.9399 103.778 62.9499 108.798 62.0799C114.888 61.0199 120.968 61.3699 126.928 62.9899C128.898 63.5199 130.808 64.3799 132.608 65.3399C135.398 66.8299 137.238 69.1399 137.788 72.3399C137.888 72.8899 138.068 73.4199 138.238 74.0799Z" fill="#E6AC5D"/>
<path d="M356.666 128.9C356.936 129.62 357.216 130.34 357.456 131.08C359.046 135.97 360.606 140.87 362.206 145.76C362.946 148.01 362.966 148.02 365.376 148.03C371.316 148.04 377.246 148.03 383.686 148.03C382.976 148.69 382.616 149.12 382.166 149.44C377.686 152.7 373.186 155.94 368.706 159.2C366.996 160.44 366.996 160.46 367.656 162.51C369.286 167.55 370.946 172.59 372.576 177.64C372.806 178.36 372.966 179.1 373.276 180.29C372.216 179.58 371.556 179.17 370.936 178.71C366.646 175.59 362.366 172.46 358.066 169.34C356.426 168.15 356.396 168.15 354.766 169.32C350.536 172.39 346.326 175.48 342.096 178.56C341.406 179.06 340.686 179.53 339.636 180.25C339.836 179.28 339.906 178.69 340.086 178.13C341.696 173.16 343.336 168.2 344.936 163.23C345.916 160.19 346.096 160.64 343.566 158.8C339.336 155.74 335.096 152.67 330.866 149.6C330.366 149.24 329.906 148.84 329.066 148.16C330.056 148.09 330.646 148.02 331.236 148.02C336.386 148.02 341.536 148.04 346.676 148.02C350.116 148.01 349.746 148.33 350.796 145.11C352.316 140.45 353.816 135.77 355.336 131.11C355.576 130.37 355.866 129.64 356.126 128.91C356.326 128.9 356.496 128.9 356.666 128.9Z" fill="#E6AC5D"/>
<path d="M406.278 564.5C408.368 566.05 410.228 567.38 412.038 568.77C414.618 570.75 415.998 573.41 416.508 576.61C416.918 579.18 416.478 581.55 414.828 583.54C410.838 588.33 405.838 591.69 399.958 593.75C398.048 594.42 396.198 594.19 394.428 593.33C389.548 590.96 385.478 587.61 382.638 582.98C379.578 577.99 380.398 573.02 384.788 569.1C386.138 567.9 387.638 566.87 389.318 565.58C388.588 564.94 387.978 564.39 387.338 563.86C381.728 559.18 381.108 553.83 385.588 548.09C387.908 545.12 390.808 542.8 394.158 541.07C397.508 539.34 400.828 539.3 404.108 541.24C407.138 543.02 409.898 545.12 412.058 547.92C415.168 551.96 415.028 555.95 411.598 559.73C410.588 560.84 409.408 561.78 408.288 562.79C407.718 563.3 407.108 563.8 406.278 564.5ZM409.468 582.9C409.378 579.41 408.228 577.54 406.528 576.02C402.488 572.38 397.658 569.98 392.818 567.62C391.828 567.14 390.828 567.26 389.878 567.85C388.068 568.97 386.878 571.32 387.458 573.36C387.878 574.84 388.468 576.48 389.498 577.56C393.518 581.79 398.508 584.72 403.648 587.38C404.148 587.64 404.908 587.66 405.448 587.49C407.648 586.77 409.488 584.05 409.468 582.9ZM408.268 557.47C407.738 556.27 407.428 554.89 406.638 553.89C403.458 549.87 399.278 547.27 394.378 545.86C392.428 545.3 390.818 546.1 389.568 547.63C388.398 549.07 388.198 550.76 389.068 552.28C389.948 553.82 391.008 555.49 392.428 556.44C395.748 558.67 399.328 560.54 402.838 562.48C403.308 562.74 404.088 562.75 404.608 562.56C406.608 561.85 408.018 559.68 408.268 557.47Z" fill="#E6AC5D"/>
<path d="M459.446 67.5C458.986 68.73 457.946 68.57 457.196 68.69C455.646 68.92 454.566 69.65 453.926 71.08C451.516 76.43 447.126 79.8 442.076 82.27C437.826 84.35 433.356 85.99 428.966 87.78C428.036 88.16 427.026 88.33 425.856 88.66C426.776 92.69 427.566 96.57 429.816 99.92C432.456 103.85 436.676 105.18 441.056 103.3C443.146 102.4 445.026 101.02 447.026 99.9C447.726 99.51 448.506 99.26 449.196 98.97C449.996 100.11 449.456 100.81 448.926 101.35C443.956 106.39 438.276 110.03 430.946 110.44C428.326 110.59 426.126 109.72 424.226 108.01C423.406 107.27 422.596 106.49 421.926 105.61C417.526 99.89 414.406 93.53 412.596 86.54C410.456 78.27 413.126 71.78 419.966 66.84C424.596 63.51 429.736 61.76 435.436 61.44C441.436 61.1 447.096 62.22 452.436 64.95C454.266 65.88 456.056 66.9 458.206 66.97C458.596 66.96 458.996 67.29 459.446 67.5ZM445.376 70.98C442.216 69.48 439.426 67.96 436.496 66.82C430.426 64.46 424.576 68.43 424.316 74.97C424.246 76.63 424.196 78.32 424.436 79.95C424.716 81.84 424.486 83.9 425.796 85.8C434.146 83.39 440.116 77.98 445.376 70.98Z" fill="#E6AC5D"/>
<path d="M422.517 580.11C422.227 578.93 421.797 577.66 421.647 576.35C421.567 575.72 421.847 574.93 422.227 574.39C428.677 565.16 435.187 555.98 443.787 548.55C447.087 545.7 450.457 542.95 453.767 540.11C454.397 539.57 454.997 539.43 455.707 539.78C456.337 540.08 456.947 540.43 457.757 540.86C457.457 541.69 457.217 542.42 456.937 543.13C455.877 545.73 455.307 548.44 455.287 551.23C455.227 557.09 455.237 562.95 455.237 568.82C455.237 569.44 455.357 570.05 455.437 570.76C458.197 571.53 460.617 570.32 463.107 569.78C463.407 571.38 462.317 576.22 461.027 578.89C459.297 578.66 457.527 578.42 455.797 578.19C455.117 579.98 454.967 587.54 455.537 590.8C456.997 590.92 458.527 591.04 460.137 591.18C460.587 592.1 460.487 592.72 459.397 592.91C459.007 592.98 458.607 592.98 458.217 592.98C452.827 592.98 447.437 592.99 442.047 592.98C441.577 592.98 441.047 593.04 440.637 592.86C440.277 592.71 439.827 592.27 439.817 591.94C439.807 591.66 440.307 591.18 440.657 591.09C441.257 590.94 441.917 591.03 442.547 591.01C443.397 590.97 444.247 590.92 445.287 590.86C445.367 589.93 445.487 589.17 445.497 588.41C445.517 585.88 445.517 583.34 445.507 580.81C445.487 578.32 445.407 578.21 443.027 578.14C436.357 577.95 429.707 577.95 423.287 580.18C423.137 580.22 422.967 580.15 422.517 580.11ZM428.927 571.34C429.037 571.56 429.147 571.79 429.257 572.01C434.577 571.8 439.887 571.58 445.497 571.36C445.497 569.03 445.497 567 445.497 564.96C445.497 562.83 445.557 560.69 445.477 558.56C445.407 556.58 445.837 554.55 444.967 552.17C438.627 558.08 433.527 564.5 428.927 571.34Z" fill="#E6AC5D"/>
<path d="M317.408 590.84C317.468 589.76 317.558 588.99 317.558 588.21C317.568 576.89 317.568 565.57 317.558 554.25C317.558 553.3 317.558 552.34 317.418 551.41C317.138 549.41 316.008 548.51 313.978 548.65C313.268 548.7 312.578 548.91 311.878 549.01C311.188 549.11 310.618 548.95 310.448 548.15C310.278 547.34 310.498 546.74 311.338 546.48C311.718 546.37 312.118 546.33 312.498 546.25C317.478 545.11 322.198 543.34 326.508 540.56C326.898 540.31 327.338 540.12 327.828 539.86C328.608 540.7 328.298 541.69 328.308 542.57C328.328 555 328.328 567.42 328.328 579.85C328.328 582.62 328.318 585.39 328.338 588.16C328.338 588.94 328.408 589.72 328.458 590.75C329.498 590.84 330.408 590.93 331.318 590.99C331.868 591.03 332.478 590.89 332.958 591.09C333.358 591.25 333.778 591.75 333.868 592.17C333.918 592.43 333.428 592.95 333.078 593.1C332.668 593.28 332.148 593.2 331.668 593.2C325.888 593.2 320.108 593.21 314.328 593.2C312.438 593.2 311.858 592.89 311.998 591.99C312.228 590.52 313.448 591.12 314.288 591.02C315.198 590.88 316.138 590.89 317.408 590.84Z" fill="#E6AC5D"/>
<path d="M366.896 551.79C365.986 551.66 365.466 551.52 364.936 551.52C360.506 551.52 356.076 551.52 351.636 551.56C349.776 551.57 347.996 551.86 346.906 553.78C345.936 553.41 345.076 553.08 343.906 552.63C345.126 548.45 346.316 544.41 347.536 540.23C353.616 541.41 359.476 541.19 365.316 541.05C367.826 540.99 370.356 540.57 372.806 540.03C375.416 539.45 375.386 539.31 377.136 541.49C377.106 541.64 377.126 541.82 377.056 541.95C371.396 550.88 367.466 560.66 363.186 570.27C361.026 575.11 358.936 579.97 357.726 585.17C356.786 589.22 356.666 593.31 356.936 597.43C356.966 597.9 356.996 598.37 356.996 598.84C356.996 598.98 356.866 599.11 356.756 599.33C354.016 598.81 351.246 598.28 348.166 597.7C348.326 596.79 348.436 595.81 348.676 594.85C350.816 586.12 354.306 577.89 358.066 569.78C360.526 564.47 363.246 559.28 365.846 554.04C366.156 553.4 366.446 552.76 366.896 551.79Z" fill="#E6AC5D"/>
<path d="M223.997 62.35C230.837 62.33 237.677 62.31 244.747 62.36C244.327 63.7 243.497 63.75 242.767 63.82C240.737 64.02 239.617 65.2 239.237 67.09C238.607 70.18 238.047 73.29 237.487 76.39C237.287 77.54 237.737 78.31 238.887 78.8C239.667 79.13 240.387 79.7 241.007 80.29C243.167 82.36 243.087 84.92 240.867 86.9C240.577 87.16 240.267 87.49 239.917 87.59C237.477 88.27 237.287 90.02 237.377 92.19C237.567 96.65 238.447 100.98 239.507 105.29C239.847 106.7 240.607 107.43 242.057 107.66C243.157 107.83 244.367 107.9 245.527 108.92C243.437 109.89 241.537 109.38 239.717 109.46C237.817 109.55 235.917 109.48 234.017 109.48C232.197 109.48 230.377 109.48 228.547 109.48C226.677 109.47 224.807 109.46 222.727 109.45C223.077 108.06 223.977 108.05 224.667 107.97C227.017 107.71 228.027 106.4 228.347 104.12C228.977 99.74 229.807 95.39 230.537 91.03C230.787 89.53 230.327 88.53 228.777 87.89C226.717 87.05 225.447 85.49 225.677 83.08C225.857 81.24 226.947 79.93 228.487 79.22C230.257 78.41 230.777 77.17 230.437 75.44C229.827 72.34 229.167 69.25 228.517 66.16C228.237 64.84 227.387 64.18 226.077 63.93C225.297 63.78 224.557 63.4 223.807 63.13C223.867 62.87 223.927 62.61 223.997 62.35Z" fill="#E6AC5D"/>
<path d="M385.505 281.32C396.055 296.69 406.605 312.06 417.335 327.68C416.505 327.87 416.005 328.09 415.515 328.09C405.925 328.11 396.345 328.11 386.755 328.09C386.225 328.09 385.685 327.94 385.215 327.87C384.675 326.01 384.525 284.36 385.505 281.32Z" fill="#E62D31"/>
<path d="M409.468 582.9C409.488 584.05 407.648 586.77 405.458 587.48C404.918 587.66 404.148 587.63 403.658 587.37C398.518 584.72 393.528 581.79 389.508 577.55C388.478 576.47 387.888 574.84 387.468 573.35C386.888 571.3 388.078 568.96 389.888 567.84C390.838 567.25 391.838 567.13 392.828 567.61C397.668 569.97 402.488 572.37 406.538 576.01C408.228 577.54 409.368 579.41 409.468 582.9Z" fill="#E62D31"/>
<path d="M408.265 557.47C408.015 559.68 406.605 561.85 404.605 562.57C404.085 562.76 403.305 562.75 402.835 562.49C399.325 560.55 395.745 558.68 392.425 556.45C391.005 555.5 389.945 553.83 389.065 552.29C388.195 550.77 388.395 549.08 389.565 547.64C390.815 546.1 392.415 545.3 394.375 545.87C399.275 547.28 403.465 549.88 406.635 553.9C407.425 554.88 407.735 556.26 408.265 557.47Z" fill="#E62D31"/>
<path d="M445.378 70.9801C440.118 77.9701 434.148 83.3901 425.788 85.8001C424.478 83.9001 424.708 81.8501 424.428 79.9501C424.188 78.3201 424.248 76.6301 424.308 74.9701C424.578 68.4301 430.428 64.4601 436.488 66.8201C439.438 67.9701 442.218 69.4901 445.378 70.9801Z" fill="#E62D31"/>
<path d="M428.926 571.34C433.526 564.5 438.636 558.08 444.976 552.17C445.846 554.55 445.406 556.59 445.486 558.56C445.566 560.69 445.506 562.83 445.506 564.96C445.506 567 445.506 569.04 445.506 571.36C439.896 571.58 434.586 571.8 429.266 572.01C429.146 571.79 429.036 571.56 428.926 571.34Z" fill="#E62D31"/>
<path d="M47.7749 325.15C48.3349 325.51 48.7449 325.73 49.0949 326.01C53.9149 330 58.6949 334.03 63.5549 337.97C64.2449 338.53 65.2149 338.81 66.1049 339.05C72.7649 340.8 79.4249 342.56 86.1149 344.19C87.5949 344.55 88.2449 345.28 88.4549 346.7C91.5149 366.67 99.8149 384.5 110.685 401.29C111.075 401.89 111.445 402.49 111.805 403.11C111.885 403.24 111.885 403.41 111.965 403.78C107.705 410.34 103.355 417.04 98.9049 423.91C109.495 434.67 119.975 445.33 130.545 456.08C137.475 451.37 144.215 446.8 151.025 442.17C152.455 443.1 153.775 443.96 155.095 444.82C169.055 453.98 184.055 460.79 200.305 464.76C202.765 465.36 205.235 465.98 207.725 466.37C209.175 466.6 209.705 467.28 210.005 468.62C211.475 475.19 213.005 481.74 214.535 488.29C214.705 489.04 214.975 489.77 215.245 490.68C216.315 490.68 217.255 490.68 218.185 490.68C227.775 490.68 237.365 490.72 246.945 490.64C248.655 490.63 249.915 491.14 251.215 492.21C272.055 509.4 292.925 526.55 313.785 543.71C314.385 544.21 314.965 544.74 315.925 545.58C313.885 546.16 312.195 546.64 310.345 547.17C310.465 547.93 310.565 548.59 310.695 549.42C311.915 549.28 312.995 549.1 314.075 549.04C316.085 548.94 317.035 549.66 317.395 551.62C317.585 552.63 317.655 553.67 317.655 554.69C317.675 565.94 317.675 577.19 317.665 588.44C317.665 589.22 317.565 589.99 317.515 590.8C316.115 591.48 314.755 591.13 313.445 591.21C312.105 591.3 311.815 591.93 312.365 593.25C313.015 593.3 313.705 593.41 314.405 593.41C320.115 593.42 325.815 593.44 331.525 593.4C332.375 593.39 333.715 593.82 333.775 592.4C333.845 590.73 332.375 591.33 331.465 591.22C330.615 591.12 329.755 591.13 328.965 591.09C328.325 589.14 328.225 558.78 328.875 556.12C337.525 563.23 346.055 570.24 354.775 577.41C352.265 584.08 349.485 590.64 348.145 597.93C351.105 598.54 353.925 599.13 357.005 599.76C357.005 598.78 357.045 597.94 356.995 597.11C356.695 592.33 356.995 587.61 358.455 583.02C358.625 582.5 358.835 582 359.035 581.49C360.785 582.19 451.805 656.7 455.875 660.74C454.815 662.14 277.345 797.59 274.635 799.02C274.015 798.58 273.305 798.11 272.625 797.6C210.475 750.56 148.315 703.51 86.1649 656.46C68.8549 643.36 51.5549 630.26 34.2049 617.2C32.5549 615.95 31.6949 614.7 31.8549 612.49C32.3749 605.46 32.6749 598.42 33.0549 591.38C33.4649 583.71 33.8749 576.04 34.2849 568.37C34.6449 561.65 35.0149 554.93 35.3849 548.21C35.8149 540.3 36.2349 532.4 36.6649 524.49C37.0249 517.85 37.3849 511.21 37.7449 504.57C38.1749 496.58 38.6049 488.6 39.0349 480.61C39.3949 473.97 39.7649 467.33 40.1349 460.68C40.5649 452.77 40.9849 444.87 41.4149 436.96C41.7849 430.24 42.1549 423.52 42.5249 416.8C42.9549 408.97 43.3649 401.14 43.7949 393.32C44.1549 386.6 44.5349 379.88 44.8949 373.16C45.3249 365.25 45.7349 357.35 46.1749 349.44C46.5949 341.85 47.0349 334.26 47.4749 326.67C47.4949 326.24 47.6349 325.81 47.7749 325.15ZM281.115 682.11C281.015 681.36 280.915 680.98 280.915 680.59C280.905 672.11 280.935 663.64 280.875 655.16C280.865 653.7 281.625 653.05 282.715 652.43C287.735 649.57 292.745 646.68 297.755 643.78C298.285 643.47 298.775 643.09 299.445 642.63C297.935 640.01 296.485 637.52 294.995 634.94C290.135 637.38 285.855 640.33 280.815 642.83C280.815 637.4 280.815 632.46 280.815 627.27C276.885 627.16 273.215 627.03 269.375 627.39C269.325 628.43 269.255 629.29 269.245 630.14C269.235 633.47 269.255 636.79 269.225 640.12C269.215 640.85 269.085 641.57 268.965 642.68C264.175 639.97 259.795 637.48 255.195 634.87C253.625 637.57 252.175 640.06 250.615 642.73C251.585 643.32 252.305 643.79 253.045 644.21C257.715 646.9 262.355 649.64 267.075 652.23C268.655 653.1 269.315 654.1 269.285 655.96C269.185 663.88 269.245 671.8 269.235 679.73C269.235 680.42 269.145 681.1 269.075 682.04C268.285 681.72 267.695 681.55 267.175 681.25C260.025 677.15 252.905 673.01 245.745 668.94C244.485 668.22 243.985 667.33 244.005 665.89C244.065 660.5 244.045 655.12 244.025 649.73C244.025 648.81 243.895 647.89 243.835 647.05C241.325 646.43 237.075 646.48 235.055 647.16C235.015 647.94 234.925 648.79 234.925 649.65C234.905 653.06 234.925 656.46 234.905 659.87C234.895 660.61 234.765 661.35 234.655 662.48C229.975 659.82 225.675 657.38 221.195 654.83C219.195 658.27 217.335 661.46 215.365 664.86C217.755 666.25 219.955 667.48 222.105 668.78C224.225 670.06 226.565 671.01 228.685 672.87C224.045 675.59 219.635 678.18 215.085 680.85C216.635 683.6 217.945 686.17 219.705 688.63C220.705 688.08 221.465 687.68 222.215 687.25C226.955 684.53 231.725 681.86 236.415 679.05C237.765 678.24 238.795 678.31 240.115 679.08C247.085 683.16 254.115 687.16 261.105 691.19C261.705 691.54 262.265 691.96 262.995 692.45C262.485 692.85 262.155 693.18 261.765 693.41C254.425 697.65 247.075 701.86 239.755 706.14C238.635 706.79 237.745 706.69 236.685 706.07C231.835 703.23 226.955 700.43 222.075 697.63C221.345 697.21 220.565 696.87 219.565 696.37C218.005 699.05 216.555 701.54 215.045 704.15C219.665 707.03 224.225 709.35 228.885 712.32C224.165 715.08 219.845 717.6 215.355 720.22C217.385 723.69 219.235 726.87 221.125 730.09C225.785 727.87 229.715 724.93 234.465 722.8C234.565 728.18 234.655 733.14 234.755 738.37C238.005 738.37 240.955 738.37 244.215 738.37C244.215 737.59 244.225 736.83 244.215 736.06C244.165 730.36 244.135 724.65 244.065 718.95C244.045 717.74 244.345 716.87 245.485 716.22C252.855 712.03 260.185 707.78 267.535 703.57C267.955 703.33 268.495 703.29 269.095 703.13C269.165 703.74 269.235 704.13 269.235 704.52C269.245 712.92 269.215 721.31 269.275 729.71C269.285 731.23 268.585 731.98 267.385 732.66C262.555 735.38 257.755 738.15 252.945 740.92C252.215 741.34 251.515 741.83 250.645 742.39C252.215 745.08 253.665 747.56 255.135 750.1C260.045 747.78 264.295 744.9 269.265 742.71C269.265 745.56 269.235 748 269.275 750.44C269.315 752.85 269.035 755.29 269.465 757.71C273.335 757.71 276.945 757.71 280.875 757.71C280.905 752.62 280.935 747.7 280.965 742.22C285.885 745.04 290.305 747.58 294.905 750.22C296.505 747.46 297.945 744.96 299.495 742.28C298.525 741.7 297.795 741.25 297.065 740.83C292.335 738.1 287.615 735.33 282.845 732.67C281.425 731.88 280.875 730.91 280.885 729.27C280.965 721.27 280.915 713.27 280.935 705.27C280.935 704.6 281.055 703.93 281.135 703.03C281.895 703.34 282.405 703.5 282.865 703.76C290.015 707.86 297.135 711.99 304.305 716.06C305.575 716.78 306.035 717.68 306.025 719.11C305.965 724.58 305.985 730.04 306.005 735.51C306.005 736.42 306.145 737.33 306.225 738.37C309.305 738.48 312.115 738.63 315.035 738.26C315.035 735.57 315.035 733.06 315.035 730.55C315.035 727.97 315.035 725.39 315.035 722.36C319.875 724.9 324.235 727.69 328.955 730.2C330.955 726.76 332.805 723.57 334.745 720.23C330.205 717.58 325.935 715.08 321.205 712.31C326.035 709.48 330.425 706.91 335.085 704.18C333.515 701.47 332.085 698.98 330.565 696.37C329.625 696.87 328.925 697.22 328.255 697.6C323.375 700.4 318.485 703.18 313.645 706.04C312.405 706.77 311.415 706.78 310.165 706.05C303.125 701.93 296.035 697.89 288.975 693.81C288.395 693.48 287.885 693.04 287.185 692.54C287.835 692.05 288.245 691.68 288.705 691.42C295.905 687.26 303.135 683.14 310.315 678.94C311.525 678.23 312.455 678.38 313.595 679.04C318.435 681.9 323.325 684.69 328.195 687.49C328.915 687.9 329.685 688.23 330.595 688.68C332.135 686 333.545 683.55 335.095 680.85C330.455 678.16 326.055 675.61 321.215 672.8C326.005 670 330.325 667.47 334.775 664.87C332.765 661.4 330.915 658.21 328.985 654.86C324.095 657.65 319.455 660.3 314.385 663.19C314.125 657.42 315.235 652.22 315.055 646.87C312.025 646.87 309.225 646.87 306.215 646.87C306.145 647.88 306.035 648.73 306.035 649.58C306.015 654.97 305.965 660.36 306.065 665.74C306.095 667.48 305.465 668.45 303.975 669.29C297.065 673.17 290.225 677.15 283.355 681.09C282.695 681.38 282.055 681.65 281.115 682.11Z" fill="#006BB4"/>
</svg>
