<?xml version="1.0" encoding="UTF-8"?>
<svg xmlns="http://www.w3.org/2000/svg" width="1200" height="600" xmlns:xlink="http://www.w3.org/1999/xlink">
  <rect width="1200" height="600" fill="#ffdc7d"/>
  <rect width="300" height="600" fill="#4682b4"/>
  <path id="a" fill="#ffffff" d="M136.247 39.5781l9.877 5.6924-12.958 22.4343 17.311 29.9012 17.245-29.868-13.026-22.434 9.878-5.6924 9.711 16.7756 9.409-16.3403 12.456 7.1989-9.677 16.3738 19.621-.0334v11.3845l-25.984-.0334-17.21 29.8337 34.556.068 12.957-22.4347 9.878 5.6921-11.284 16.7086 20.493.067.033 14.331-18.885-.033 9.711 16.775-9.878 5.659-12.992-22.468-34.556-.033 17.311 29.901 25.951.033v11.385l-19.354-.033 9.442 16.373-12.389 7.132-9.743-16.876-9.41 17.278-9.877-5.725 12.958-22.402-17.312-29.901-17.244 29.835 12.992 22.468-9.844 5.692-9.711-16.776-9.409 16.307-12.456-7.166 9.443-15.938-19.3872-.402v-11.385l25.9502.068 17.244-29.902-34.556-.033-12.8909 22.635-10.1118-5.96 9.4087-16.742-18.45.033-.0332-14.331 18.885.034-9.7109-16.776 9.8782-5.6922 12.9919 22.4682 34.555.033-17.311-29.8679-25.95-.0669V63.4521h19.354l-9.476-16.3403 12.423-7.1321 9.475 16.3404z"/>
  <use y="188.097" xlink:href="#a"/>
  <use y="376.194" xlink:href="#a"/>
</svg>